<?xml version="1.0" standalone="no"?>
<!DOCTYPE svg PUBLIC "-//W3C//DTD SVG 20010904//EN"
 "http://www.w3.org/TR/2001/REC-SVG-20010904/DTD/svg10.dtd">
<svg version="1.0" xmlns="http://www.w3.org/2000/svg"
 width="1280.000000pt" height="1252.000000pt" viewBox="0 0 1280.000000 1252.000000"
 preserveAspectRatio="xMidYMid meet">
<metadata>
Created by potrace 1.15, written by Peter Selinger 2001-2017
</metadata>
<g transform="translate(0.000000,1252.000000) scale(0.100000,-0.100000)"
fill="#2d4573" stroke="none">
<path d="M4750 12501 c-40 -18 -70 -20 -291 -20 -280 -1 -263 4 -294 -91 -20
-60 -62 -110 -93 -110 -11 0 -25 -6 -31 -14 -18 -21 10 -37 82 -46 70 -8 93
-18 121 -49 17 -18 30 -21 105 -21 92 0 190 13 233 31 15 6 38 28 52 50 15 21
34 39 44 38 9 0 50 -42 91 -93 47 -60 94 -107 132 -132 32 -21 59 -44 59 -50
0 -17 -34 -44 -57 -44 -11 0 -37 7 -57 15 -20 9 -72 23 -114 31 -42 9 -91 24
-107 33 -49 28 -79 33 -280 42 -104 5 -203 11 -220 14 -24 5 -43 -2 -95 -35
-35 -23 -66 -38 -68 -32 -9 27 -64 92 -77 92 -9 0 -29 -10 -45 -21 -31 -23
-43 -23 -144 6 -67 19 -96 15 -181 -26 -69 -34 -105 -36 -247 -14 -92 14 -158
12 -158 -5 0 -14 -55 -62 -92 -81 -51 -26 -80 -24 -109 7 -52 57 -164 88 -261
73 -53 -8 -85 -7 -155 6 -82 15 -131 20 -403 45 -58 5 -148 14 -200 20 -67 8
-147 7 -272 -1 l-177 -11 -70 42 -70 42 -75 -7 c-69 -7 -77 -6 -108 18 -35 26
-98 61 -102 55 -1 -2 -12 -19 -24 -39 -12 -20 -29 -42 -37 -49 -24 -20 -156
-50 -221 -50 -74 0 -233 -50 -284 -89 -85 -66 -100 -71 -188 -64 -80 6 -82 5
-82 -16 0 -65 52 -101 148 -101 27 0 71 -12 112 -30 38 -16 79 -30 93 -30 30
0 105 -53 116 -83 16 -42 4 -50 -68 -44 -82 7 -145 29 -193 68 l-37 29 -57
-30 c-31 -16 -67 -30 -79 -30 -28 0 -197 -48 -208 -59 -13 -13 85 -108 133
-130 59 -26 207 -45 288 -38 42 4 79 15 107 32 55 32 145 36 145 7 0 -23 -26
-59 -53 -74 -12 -6 -70 -15 -129 -19 -115 -8 -164 -26 -271 -104 -69 -51 -65
-68 38 -175 47 -49 85 -93 85 -99 0 -34 111 8 157 59 47 53 90 31 78 -39 -8
-48 5 -75 46 -97 30 -15 31 -15 63 23 l33 37 37 -29 c21 -17 48 -38 60 -48 21
-17 26 -18 52 -4 47 23 79 28 99 13 46 -33 -15 -93 -150 -146 -33 -13 -136
-58 -230 -100 -93 -43 -183 -80 -200 -84 -34 -9 -45 -21 -45 -53 0 -55 59 -49
274 28 65 24 133 41 164 43 44 2 79 16 211 84 88 45 167 82 176 82 10 0 37
-18 61 -40 60 -55 99 -55 183 1 64 43 94 85 89 122 -3 21 -7 22 -76 19 -39 -2
-72 0 -71 5 0 4 19 22 41 38 47 34 54 44 68 104 13 49 46 87 85 97 40 10 45
-5 23 -69 -16 -47 -17 -61 -7 -73 16 -20 61 -10 119 26 25 15 63 31 85 35 51
9 99 34 159 84 26 23 58 41 70 41 11 0 48 -14 81 -30 54 -27 66 -30 121 -24
42 4 76 1 114 -10 30 -9 93 -23 140 -31 47 -8 150 -35 229 -60 78 -25 150 -45
160 -45 41 0 116 -36 156 -74 35 -33 45 -52 54 -97 7 -31 20 -63 29 -72 9 -8
42 -17 74 -21 61 -6 141 -36 154 -57 4 -7 8 -57 8 -110 1 -82 4 -102 22 -125
22 -30 178 -124 205 -124 41 0 28 97 -20 153 -37 42 -53 137 -23 137 22 0 39
-18 75 -82 40 -70 75 -107 123 -129 23 -11 54 -37 68 -58 21 -31 26 -47 24
-97 -2 -85 36 -134 106 -134 24 0 78 -33 132 -80 18 -15 50 -38 72 -50 48 -27
55 -42 82 -176 19 -97 19 -107 4 -270 -8 -93 -15 -194 -15 -225 0 -99 53 -214
148 -322 24 -26 69 -87 102 -135 61 -90 170 -211 208 -231 12 -6 36 -11 54
-11 76 0 116 -49 244 -299 64 -126 87 -160 115 -178 64 -40 90 -64 90 -84 0
-10 -16 -41 -36 -69 -51 -70 -45 -85 36 -86 36 0 70 -1 76 -2 6 -1 45 -40 87
-87 60 -67 77 -93 77 -116 0 -27 6 -33 63 -58 35 -16 71 -41 83 -57 12 -16 37
-38 57 -48 33 -19 36 -19 61 -3 52 35 30 81 -84 172 -62 49 -69 59 -79 105
-15 70 -31 97 -91 155 -28 28 -72 81 -96 118 -24 37 -73 95 -108 127 -67 64
-78 82 -65 117 9 26 61 55 83 47 8 -3 30 -43 48 -87 31 -80 37 -87 193 -242
93 -93 194 -205 240 -267 54 -72 91 -113 115 -124 51 -25 139 -112 166 -166
17 -34 23 -62 23 -106 -1 -33 4 -70 11 -83 37 -71 62 -90 233 -175 146 -74
180 -95 227 -144 61 -64 99 -80 187 -80 67 0 97 -12 148 -59 66 -60 79 -61
135 -6 36 35 57 48 87 52 51 7 105 -18 139 -63 35 -45 153 -140 197 -159 20
-8 47 -15 60 -15 14 0 45 -9 71 -20 35 -16 57 -19 93 -15 42 6 57 2 120 -29
100 -51 139 -97 148 -175 8 -73 27 -99 99 -140 30 -16 86 -57 126 -90 45 -38
94 -69 130 -82 32 -11 71 -34 86 -50 32 -34 58 -36 98 -10 34 23 55 56 56 89
0 20 5 22 49 22 75 0 82 -8 182 -210 33 -66 34 -129 6 -245 -21 -90 -28 -106
-68 -149 -80 -87 -104 -111 -162 -154 -32 -24 -69 -61 -83 -82 l-25 -38 25
-64 c14 -34 31 -84 37 -110 l13 -46 -52 -77 c-80 -118 -73 -159 36 -230 83
-54 105 -78 121 -135 7 -25 37 -93 67 -152 30 -59 62 -130 73 -158 10 -27 41
-80 69 -117 61 -84 82 -124 82 -158 0 -74 71 -144 195 -192 39 -15 97 -46 130
-68 33 -23 81 -53 106 -68 53 -30 99 -79 131 -140 21 -37 23 -55 21 -162 0
-66 -12 -205 -26 -310 -18 -141 -23 -217 -20 -296 l5 -105 -51 -51 c-54 -53
-59 -67 -36 -97 22 -29 19 -41 -20 -78 l-36 -33 21 -59 c30 -89 26 -126 -27
-246 -26 -57 -60 -126 -76 -152 -23 -37 -30 -60 -29 -95 0 -41 -5 -53 -35 -86
-40 -44 -39 -70 2 -111 29 -29 31 -62 9 -121 -50 -132 -49 -118 -24 -222 l23
-95 -26 -53 c-14 -30 -51 -83 -81 -118 -29 -35 -61 -78 -71 -96 -16 -32 -16
-33 14 -86 17 -30 31 -59 31 -64 0 -5 -16 -35 -35 -67 -21 -35 -35 -71 -35
-91 0 -30 5 -36 44 -53 60 -25 64 -36 27 -74 -39 -40 -39 -62 0 -84 67 -37 73
-45 75 -110 1 -69 7 -78 82 -136 30 -23 70 -53 89 -68 42 -32 83 -36 107 -9 9
10 24 42 34 72 18 56 40 72 67 49 27 -23 15 -49 -50 -106 -36 -32 -65 -61 -65
-65 0 -3 10 -9 23 -12 12 -3 56 -17 97 -32 89 -32 114 -31 325 15 164 36 205
48 205 61 0 5 -3 9 -7 9 -53 0 -196 26 -225 41 -53 27 -152 112 -177 152 -15
25 -21 51 -21 97 0 74 3 77 177 208 91 69 114 92 131 130 21 46 26 64 23 89
-1 7 -31 14 -81 19 -65 5 -81 10 -85 25 -10 32 3 53 56 94 29 22 73 64 98 95
26 30 79 87 119 126 46 46 72 80 72 94 0 21 -3 22 -44 16 -54 -8 -78 12 -96
81 -17 69 -14 69 139 29 35 -10 75 -16 90 -14 22 3 26 7 23 33 -13 155 -8 161
121 157 120 -4 266 14 291 36 42 38 156 210 156 236 0 17 -14 40 -40 66 -21
21 -53 63 -69 92 -29 49 -31 59 -30 148 1 86 2 91 11 50 38 -182 54 -209 139
-234 121 -36 175 -16 317 119 100 95 114 117 146 226 21 72 54 105 93 92 39
-14 50 -7 75 40 11 23 44 66 73 97 94 101 96 107 68 227 -26 111 -16 122 207
237 136 70 180 84 323 106 65 10 124 24 132 30 8 7 30 46 50 87 19 41 63 115
97 164 62 89 62 90 63 162 1 49 10 100 30 161 l28 89 -18 68 c-28 112 -22 125
113 259 65 63 134 136 155 161 42 52 134 267 144 335 7 56 -22 120 -84 182
-42 42 -59 51 -146 76 -87 26 -105 35 -160 84 -66 59 -148 102 -194 103 -15 0
-62 -3 -104 -7 -86 -7 -72 -12 -266 98 -128 73 -197 98 -275 98 -58 0 -87 -26
-129 -117 l-29 -63 -48 1 c-87 1 -91 10 -23 53 67 41 111 96 111 138 0 73
-114 92 -163 27 -12 -17 -33 -37 -47 -44 -39 -20 -115 -29 -139 -16 -30 16
-27 46 7 59 15 6 59 23 97 38 39 15 90 40 114 57 40 28 43 32 37 66 -7 46 -35
83 -70 92 -39 11 -52 24 -89 93 -43 82 -140 177 -223 217 -72 36 -113 40 -241
25 l-72 -9 -36 39 c-19 21 -70 76 -112 122 l-76 82 -56 0 c-31 0 -64 7 -74 14
-9 7 -28 11 -41 9 -39 -8 -39 13 -2 88 36 72 51 123 44 156 -3 14 -14 4 -46
-39 -48 -65 -67 -71 -103 -32 -56 60 -150 81 -224 50 -24 -10 -36 -23 -41 -43
-7 -28 -31 -63 -44 -63 -3 0 -17 18 -29 41 -38 67 -131 88 -194 44 -36 -25
-56 -18 -85 31 -48 82 -52 85 -93 74 -46 -13 -112 -70 -133 -114 -9 -19 -21
-61 -27 -93 -6 -32 -14 -62 -18 -66 -19 -19 -35 29 -39 113 -4 80 -2 91 22
132 14 25 26 54 26 66 0 35 -64 30 -125 -9 -27 -17 -75 -44 -107 -59 -76 -37
-109 -66 -185 -160 -35 -44 -77 -84 -96 -94 -46 -21 -93 -12 -110 22 -15 32
-52 59 -103 77 -34 12 -42 12 -59 -1 -11 -8 -54 -31 -95 -51 -121 -59 -170
-49 -235 50 -61 92 -68 236 -18 393 l16 53 -29 47 c-32 52 -113 114 -149 114
-12 0 -49 -12 -81 -26 -46 -20 -68 -24 -104 -20 -25 3 -71 9 -103 12 -32 4
-56 9 -54 13 35 64 48 109 47 154 -4 95 -1 106 39 150 53 58 61 77 61 142 0
45 -4 60 -23 79 -21 21 -27 22 -97 15 -41 -4 -106 -8 -144 -8 -64 -1 -70 -3
-102 -35 -34 -34 -35 -35 -28 -100 6 -61 5 -66 -20 -91 -19 -19 -32 -24 -44
-19 -39 19 -106 9 -156 -24 -74 -48 -98 -44 -191 31 -86 69 -166 151 -185 188
-43 82 -53 278 -20 374 28 82 27 146 -5 183 l-25 30 20 25 c12 14 59 45 105
68 52 26 104 62 135 93 l51 51 117 3 c121 4 125 3 250 -47 l53 -21 24 24 c14
14 25 34 25 45 0 35 46 61 111 61 32 0 104 5 160 12 l102 11 47 -51 c55 -59
75 -63 120 -26 17 15 33 24 36 21 3 -3 16 -49 29 -102 33 -131 57 -177 113
-218 35 -25 51 -45 62 -78 14 -41 18 -44 50 -44 28 0 38 6 57 33 39 59 41 114
4 220 -30 89 -74 188 -107 242 -19 32 -12 96 13 121 10 10 46 35 80 56 35 21
120 83 190 139 71 55 151 113 178 128 97 55 112 82 75 129 -43 54 -65 146 -40
162 6 4 26 -3 45 -15 32 -20 36 -20 64 -5 42 21 53 47 45 100 -8 55 6 75 51
75 44 0 62 23 48 61 -10 26 -9 31 15 50 23 18 36 20 85 16 100 -9 229 17 241
48 2 7 -7 29 -20 49 -40 59 -41 87 -3 130 44 51 80 67 173 78 66 7 84 13 101
32 26 31 64 51 76 39 5 -5 11 -31 15 -58 15 -126 40 -137 164 -72 74 39 113
51 261 82 174 36 219 52 219 81 0 21 -55 128 -74 143 -14 12 -23 7 -66 -33
-27 -25 -56 -46 -65 -46 -37 0 -54 20 -61 70 -4 28 -11 53 -16 56 -6 4 -30 -8
-54 -25 -25 -17 -51 -31 -59 -31 -7 0 -27 17 -44 37 l-31 37 20 21 c30 32 25
72 -14 111 -45 45 -99 46 -193 4 -37 -17 -108 -42 -158 -55 -49 -13 -101 -27
-115 -31 -27 -8 77 71 236 178 113 76 138 81 213 48 38 -18 46 -19 60 -6 36
32 44 24 45 -44 1 -36 5 -71 9 -77 12 -19 46 -15 103 11 56 26 73 44 54 56 -6
4 11 10 41 14 28 4 73 18 99 31 26 13 69 30 95 36 33 8 65 27 102 61 59 53 74
57 103 28 31 -31 25 -50 -34 -104 -39 -36 -65 -73 -90 -126 -20 -41 -41 -82
-47 -91 -7 -9 -9 -24 -5 -34 6 -16 19 -17 152 -13 145 5 146 5 176 -20 l30
-25 35 18 c44 24 126 24 153 0 24 -22 40 -12 40 25 0 29 -90 181 -124 209 -12
10 -32 12 -74 8 -50 -5 -63 -3 -97 18 -22 13 -50 25 -62 25 -13 0 -23 2 -23 5
0 2 25 46 56 97 99 162 100 164 86 181 -7 9 -44 25 -82 36 -63 19 -74 27 -109
74 -75 101 -128 135 -225 146 -87 10 -92 13 -110 55 -23 54 -338 396 -365 396
-8 0 -56 -42 -105 -94 -109 -113 -133 -123 -219 -83 -54 24 -117 81 -117 105
0 7 12 24 26 37 50 47 6 76 -150 100 -78 11 -108 22 -182 62 l-89 48 -155 -2
c-85 0 -173 -5 -195 -10 -38 -8 -41 -12 -52 -58 -16 -62 -19 -120 -9 -167 9
-40 0 -48 -66 -62 -39 -9 -35 -20 15 -49 44 -26 167 -149 167 -168 0 -21 -29
-77 -51 -98 -30 -29 -92 -61 -117 -61 -10 0 -29 11 -42 25 -27 29 -84 35 -94
10 -3 -8 10 -35 30 -61 36 -46 72 -154 81 -240 7 -57 -18 -74 -109 -74 -56 0
-71 4 -88 22 -23 25 -25 40 -9 66 8 13 9 39 4 78 l-7 59 -37 -42 c-43 -50 -61
-54 -61 -14 0 16 -9 48 -20 72 -11 24 -20 53 -20 65 0 42 -32 57 -118 55 -56
-1 -121 8 -218 29 -235 51 -266 60 -359 101 -94 42 -133 48 -221 34 l-51 -7
-18 46 c-21 55 -56 86 -96 86 -68 0 -99 37 -99 119 0 59 31 95 157 179 65 44
143 100 173 126 86 75 100 79 240 86 l124 5 14 79 c14 78 15 79 27 49 7 -17
34 -45 59 -62 25 -18 46 -37 46 -44 0 -6 -14 -26 -32 -44 -33 -34 -33 -32 16
-47 22 -7 94 12 166 44 37 16 85 32 109 36 48 8 71 -7 102 -68 12 -23 29 -40
44 -44 55 -14 151 48 129 84 -12 20 -106 69 -180 94 -28 10 -72 36 -98 59 -46
41 -48 41 -85 30 -50 -14 -94 -14 -109 1 -7 7 -27 11 -46 10 -42 -3 -73 22
-55 44 14 17 115 19 204 3 58 -10 69 -8 166 21 105 33 149 59 149 91 0 26 -45
75 -82 89 -51 20 -60 30 -46 47 29 36 73 48 188 53 l115 5 3 30 c2 17 8 34 13
39 13 14 47 -21 54 -55 6 -28 8 -29 72 -29 68 0 123 -25 123 -56 0 -35 -42
-94 -79 -114 -74 -37 -65 -44 69 -55 l75 -6 31 33 c17 18 41 48 53 66 12 17
30 32 40 32 25 0 151 -58 151 -69 0 -5 -33 -22 -72 -37 -71 -26 -83 -36 -156
-123 l-29 -35 -79 12 c-112 17 -158 15 -185 -7 -21 -17 -24 -27 -22 -81 2 -91
9 -95 115 -71 76 18 102 19 231 12 137 -8 149 -11 200 -40 30 -17 65 -31 79
-31 13 0 47 -16 74 -35 55 -39 66 -42 84 -20 21 26 58 17 103 -24 40 -37 46
-39 129 -46 l87 -7 15 30 c25 49 78 48 168 -3 24 -14 47 -25 52 -25 12 0 0
110 -15 144 -13 29 -56 59 -150 106 -35 18 -69 40 -76 49 -18 23 -16 61 4 68
30 12 127 -16 215 -62 48 -25 97 -45 108 -45 40 0 161 73 206 124 50 57 49 58
-47 75 -104 18 -151 35 -204 76 -77 59 -129 79 -184 70 -105 -17 -118 -7 -152
120 -13 50 -29 90 -38 94 -9 5 -36 12 -61 16 -304 48 -478 100 -722 216 -70
34 -143 64 -162 69 -21 4 -108 2 -203 -6 -93 -7 -202 -14 -243 -14 -41 0 -112
-5 -157 -11 l-83 -12 3 -61 2 -60 -36 -12 c-19 -7 -51 -14 -70 -16 -38 -3 -36
-12 -23 103 6 49 4 58 -19 85 -37 43 -92 40 -237 -15 -131 -50 -174 -76 -167
-100 3 -9 12 -40 21 -70 18 -64 52 -102 120 -136 44 -22 64 -25 160 -26 61 0
131 -4 156 -7 l45 -7 -2 -44 c-3 -55 -13 -67 -78 -86 -42 -12 -58 -23 -75 -50
-23 -38 -48 -55 -77 -55 -17 0 -19 6 -15 60 5 67 -7 88 -61 117 -32 16 -54 11
-109 -23 -54 -34 -72 -31 -102 20 -14 24 -38 51 -53 61 -15 10 -68 58 -116
106 -93 93 -131 112 -186 93 -39 -14 -38 -52 3 -153 44 -109 61 -182 49 -218
-8 -23 -20 -29 -89 -48 -82 -23 -116 -20 -127 9 -10 26 -29 186 -24 200 4 10
-18 12 -107 11 -62 -1 -118 -5 -125 -9 -20 -13 -12 -33 18 -46 47 -19 73 -53
69 -91 -2 -28 -10 -37 -40 -52 -34 -17 -60 -18 -348 -11 -254 6 -314 10 -326
22 -46 45 27 82 180 92 120 8 173 24 219 67 60 59 23 100 -105 115 -46 6 -100
19 -121 29 -49 25 -117 94 -117 117 0 11 14 38 30 61 17 23 28 46 25 51 -4 6
-54 10 -113 10 -59 0 -127 5 -152 11 -58 13 -90 5 -90 -23 0 -12 12 -64 27
-115 15 -51 24 -96 20 -99 -12 -12 -38 19 -73 88 -54 108 -70 111 -361 77
l-113 -13 -73 36 c-40 20 -87 40 -103 44 -55 13 -131 52 -156 79 -34 37 -122
44 -188 16z m-639 -2290 c14 -10 40 -25 59 -34 43 -18 153 -100 180 -134 26
-33 28 -111 4 -120 -29 -11 -48 11 -70 78 -20 62 -22 65 -70 82 -27 9 -60 23
-73 30 -24 12 -91 92 -91 108 0 16 37 10 61 -10z m3740 -77 c46 -38 129 -84
152 -84 29 0 39 -26 24 -57 -33 -63 -44 -66 -164 -53 -73 8 -117 18 -134 30
-24 17 -31 18 -81 4 -31 -8 -72 -21 -91 -29 -55 -23 -124 -20 -137 6 -18 33 9
62 76 83 33 10 106 45 164 77 58 33 115 59 127 59 11 0 40 -16 64 -36z m229
-285 c36 -7 119 -13 185 -13 72 -1 128 -6 141 -13 29 -16 72 -82 80 -121 6
-29 4 -32 -19 -32 -32 0 -87 45 -87 71 0 32 -19 21 -29 -18 -13 -44 -13 -90
-2 -118 19 -45 -67 -124 -107 -99 -24 15 -41 69 -41 132 -1 82 -26 117 -98
137 -43 12 -104 -15 -160 -68 -47 -46 -55 -59 -62 -107 -5 -30 -7 -85 -4 -122
9 -103 -20 -149 -83 -136 -36 7 -43 44 -41 234 l2 183 30 31 c17 18 41 37 55
43 39 16 133 35 155 31 11 -2 49 -9 85 -15z m772 -217 c23 -23 -6 -45 -112
-83 -57 -21 -115 -47 -129 -59 -14 -11 -62 -38 -106 -60 -44 -23 -89 -49 -100
-59 -54 -50 -127 -65 -145 -31 -8 16 -7 24 7 39 18 19 133 81 151 81 4 0 35
30 67 66 32 36 75 78 95 93 34 24 43 26 148 26 77 0 115 -4 124 -13z"/>
</g>
</svg>
