<?xml version="1.0" standalone="no"?>
<!DOCTYPE svg PUBLIC "-//W3C//DTD SVG 20010904//EN"
 "http://www.w3.org/TR/2001/REC-SVG-20010904/DTD/svg10.dtd">
<svg version="1.0" xmlns="http://www.w3.org/2000/svg"
 width="1280.000000pt" height="761.000000pt" viewBox="0 0 1280.000000 761.000000"
 preserveAspectRatio="xMidYMid meet">
<metadata>
Created by potrace 1.15, written by Peter Selinger 2001-2017
</metadata>
<g transform="translate(0.000000,761.000000) scale(0.100000,-0.100000)"
fill="#2d4573" stroke="none">
<path d="M9462 7507 c-35 -9 -41 -14 -36 -30 5 -16 3 -17 -14 -8 -12 6 -33 11
-49 11 -19 0 -24 3 -14 9 17 11 -1 23 -23 15 -17 -6 -19 -15 -16 -51 1 -13 -3
-23 -9 -23 -6 0 -8 7 -5 15 4 9 -1 18 -12 22 -11 4 -25 13 -32 20 -15 15 -72
18 -72 3 0 -14 37 -31 54 -24 12 5 15 2 10 -10 -3 -9 -1 -16 5 -16 6 0 3 -9
-6 -20 -10 -11 -21 -20 -26 -20 -5 0 -4 7 3 15 10 12 8 16 -15 25 -53 20 -83
-9 -31 -30 19 -8 19 -9 2 -9 -10 -1 -24 6 -31 16 -10 13 -17 14 -45 4 -43 -14
-50 -7 -11 10 17 8 31 17 31 20 0 14 -14 18 -27 7 -9 -7 -54 -12 -112 -13
-114 -2 -132 -9 -102 -37 18 -16 30 -18 84 -12 34 4 59 3 55 -1 -4 -4 -24 -9
-44 -11 -46 -4 -51 -10 -36 -34 7 -11 9 -20 4 -20 -4 0 -13 9 -20 20 -7 11
-23 20 -37 20 -14 0 -25 5 -25 10 0 12 -37 13 -44 1 -3 -4 -24 -11 -46 -15
-62 -10 -47 -36 21 -36 16 0 38 -9 49 -20 11 -11 16 -20 11 -20 -5 0 -14 7
-22 16 -9 11 -27 15 -60 13 -27 -2 -54 3 -63 10 -12 10 -17 9 -26 -10 -8 -14
-8 -19 -1 -15 6 4 11 2 11 -3 0 -14 -27 -14 -35 -1 -6 10 -35 3 -33 -8 2 -12
-22 -65 -28 -60 -2 3 1 17 7 31 9 21 9 30 -1 42 -11 13 -8 15 23 15 26 0 39 6
47 19 8 16 6 21 -10 26 -19 6 -70 -20 -70 -36 0 -5 -15 -15 -33 -23 -19 -7
-46 -29 -61 -47 -29 -35 -26 -23 6 23 24 34 23 38 -8 38 -14 0 -23 4 -19 10 3
5 15 6 28 1 12 -5 31 -5 41 -1 16 5 15 8 -13 19 -35 15 -100 9 -113 -11 -6
-10 -8 -8 -8 5 0 11 -8 17 -21 17 -13 0 -19 -5 -16 -13 4 -10 -3 -12 -24 -9
-16 2 -37 1 -46 -3 -17 -6 -17 -7 1 -21 12 -8 15 -14 7 -14 -11 0 -11 -3 -1
-15 15 -18 9 -19 -24 -3 -21 9 -29 8 -44 -5 -10 -10 -24 -17 -30 -17 -7 0 -12
-4 -12 -10 0 -5 16 -10 35 -10 19 0 35 -3 35 -7 0 -11 -51 -8 -75 4 -25 13
-115 15 -115 2 0 -4 -7 -6 -15 -3 -8 4 -15 1 -15 -5 0 -6 -11 -11 -25 -11 -20
0 -25 -5 -25 -25 0 -14 -5 -25 -11 -25 -5 0 -7 -4 -4 -10 3 -5 15 -10 25 -10
11 0 25 -10 31 -22 11 -21 11 -22 -4 -10 -17 14 -61 7 -52 -8 3 -4 -3 -11 -12
-14 -19 -8 -37 14 -23 28 17 17 11 26 -20 26 -32 0 -41 -16 -12 -23 9 -3 2 -5
-15 -6 -18 0 -33 -6 -33 -12 0 -8 -5 -8 -15 1 -8 7 -12 16 -9 21 3 5 -3 9 -13
9 -11 1 -4 8 20 21 53 28 48 43 -10 35 -50 -7 -108 -49 -88 -64 26 -18 -11
-72 -50 -72 -9 0 -25 -5 -36 -10 -10 -6 -19 -7 -19 -2 0 5 -13 7 -30 4 -16 -2
-30 -8 -30 -12 0 -4 -9 -10 -20 -13 -11 -3 -20 -10 -20 -16 0 -17 139 -1 184
21 21 11 35 15 31 9 -8 -15 60 -15 86 0 17 9 21 7 26 -10 3 -12 14 -21 24 -21
17 0 17 -3 7 -20 -12 -19 -13 -19 -26 5 -14 29 -34 32 -52 10 -8 -9 -16 -12
-19 -6 -9 14 -77 -3 -73 -19 2 -8 -4 -11 -19 -7 -29 8 -88 -21 -68 -34 12 -7
12 -9 -1 -9 -12 0 -13 -2 -1 -9 8 -5 27 -5 45 1 17 5 40 12 51 14 16 4 16 2
-3 -8 l-24 -12 33 -15 c18 -9 35 -22 37 -30 3 -10 -5 -7 -23 7 -32 25 -66 28
-122 8 -22 -8 -52 -12 -66 -9 -36 7 -35 -15 1 -23 45 -10 48 -12 18 -13 -20
-1 -27 -5 -23 -15 6 -15 -38 -26 -108 -26 -27 0 -36 -3 -26 -9 11 -7 5 -12
-22 -19 -44 -12 -69 -35 -61 -55 3 -8 0 -18 -7 -23 -9 -5 -7 -9 7 -15 17 -7
17 -8 -4 -8 -13 -1 -48 -26 -87 -65 -69 -68 -84 -102 -41 -94 28 6 44 -17 20
-26 -22 -8 -26 -7 -19 3 7 12 -108 12 -127 0 -7 -5 -10 -9 -6 -9 16 0 -48 -60
-65 -60 -10 0 -16 -4 -12 -9 6 -11 -35 -26 -78 -30 -5 -1 -5 -5 -2 -11 3 -5
-4 -10 -15 -10 -47 0 -102 -51 -68 -62 7 -3 -6 -8 -28 -11 -23 -4 -48 -14 -55
-23 -12 -15 -11 -16 17 -10 22 5 31 3 31 -6 0 -9 -12 -12 -38 -10 -22 2 -52
-3 -70 -12 -18 -9 -35 -14 -37 -11 -3 3 0 5 6 5 20 0 14 18 -8 25 -11 3 -20
13 -20 21 0 17 -8 17 -66 3 -49 -13 -58 -29 -16 -30 l27 0 -25 -11 c-21 -9
-22 -12 -7 -15 9 -3 17 -14 17 -25 0 -18 -5 -20 -33 -15 -36 6 -67 -5 -48 -17
6 -4 16 -4 21 -1 6 3 10 -1 10 -9 0 -8 8 -20 18 -26 24 -15 5 -8 -42 15 -29
15 -40 17 -43 8 -3 -7 -9 -13 -14 -13 -6 0 -8 4 -5 9 8 12 -18 21 -34 11 -10
-6 -9 -9 1 -13 8 -3 -11 -6 -42 -6 -37 -1 -61 -6 -69 -16 -7 -8 -9 -15 -4 -15
5 0 -4 -7 -19 -15 -15 -8 -33 -12 -40 -10 -7 3 -19 0 -27 -5 -13 -9 -13 -12 3
-21 9 -5 17 -15 17 -21 0 -9 -3 -9 -12 0 -12 12 -88 17 -88 5 0 -3 8 -15 18
-26 17 -20 17 -20 -15 -2 -27 16 -34 17 -48 5 -9 -8 -32 -13 -51 -12 -39 3
-44 -5 -11 -18 l22 -9 -23 0 c-29 -1 -19 -21 11 -21 18 -1 15 -4 -12 -16 -32
-14 -33 -15 -17 -33 17 -18 16 -20 -1 -30 -17 -10 -17 -10 2 -11 14 -1 16 -3
5 -7 -20 -7 -50 -34 -50 -45 0 -4 7 -8 15 -8 8 0 15 5 15 10 0 6 33 10 79 10
75 0 155 11 195 26 14 5 17 4 12 -4 -4 -8 0 -12 11 -12 10 0 25 -5 33 -11 12
-8 11 -9 -5 -6 -11 3 -87 2 -170 -1 -123 -6 -150 -10 -151 -22 0 -8 -4 -25 -8
-38 -5 -14 -3 -28 4 -37 7 -8 7 -14 1 -17 -18 -5 0 -48 20 -48 10 0 22 -6 26
-14 6 -11 19 -12 66 -4 34 6 61 16 64 24 6 16 62 48 70 41 2 -3 -5 -8 -16 -12
-11 -3 -28 -16 -38 -28 -25 -31 -68 -51 -94 -44 -26 7 -79 -20 -79 -40 0 -18
13 -16 44 8 14 11 31 17 37 13 6 -3 -6 -14 -28 -24 -22 -10 -40 -24 -41 -31 0
-8 -4 -24 -7 -36 -8 -26 12 -32 33 -11 13 13 16 14 65 16 16 1 27 8 27 17 0 8
6 12 14 9 16 -6 15 -29 -2 -46 -19 -19 -14 -28 15 -28 19 0 24 -3 16 -11 -7
-7 -20 -6 -44 5 -19 8 -28 15 -21 15 19 1 14 21 -6 21 -21 0 -45 -61 -35 -87
7 -18 97 -59 151 -68 26 -4 39 -11 36 -19 -3 -8 19 -16 70 -25 96 -17 179 -3
262 45 189 108 209 118 240 115 23 -2 36 4 50 21 11 13 28 28 39 32 20 7 20 8
-2 26 l-22 18 24 4 c21 4 24 1 27 -26 3 -26 9 -33 43 -44 48 -16 55 -25 55
-79 0 -31 6 -46 23 -60 12 -10 22 -25 22 -33 0 -8 9 -19 21 -25 11 -5 19 -16
17 -22 -3 -7 5 -20 16 -30 12 -9 21 -25 21 -35 0 -11 7 -18 18 -18 10 0 22
-12 28 -29 6 -16 38 -48 70 -72 57 -42 58 -44 32 -47 -29 -3 -37 -17 -15 -25
6 -3 -1 -6 -17 -6 -25 -1 -27 -3 -15 -18 10 -12 10 -14 1 -9 -13 8 -80 -12
-99 -31 -7 -6 -13 -18 -14 -25 0 -7 -4 -3 -9 10 -8 18 -17 22 -52 22 -41 -1
-42 -1 -19 -14 20 -11 21 -14 6 -19 -9 -4 -31 -7 -49 -7 -45 0 -52 -11 -16
-26 22 -10 30 -20 30 -38 0 -30 31 -50 66 -43 13 2 24 0 24 -4 0 -5 18 -9 41
-9 23 0 38 -4 34 -10 -7 -12 39 -24 61 -16 22 8 8 26 -21 26 -33 0 -40 17 -10
24 28 7 33 31 9 40 -25 10 -5 26 25 20 18 -4 32 -1 36 7 6 8 4 11 -6 7 -10 -4
-14 5 -16 34 l-1 40 34 -33 c26 -25 31 -36 23 -46 -9 -9 -8 -17 1 -28 10 -12
33 -14 117 -11 114 4 132 12 112 44 -11 18 -10 24 5 41 11 12 32 21 47 21 15
0 29 6 32 13 2 8 32 12 102 12 93 0 98 1 113 25 47 76 67 106 80 117 12 10 12
15 3 27 -10 12 -8 19 7 34 17 17 19 27 12 56 -7 30 -5 36 9 36 12 0 13 2 3 9
-11 7 -11 9 2 14 21 8 20 43 -1 56 -16 9 -16 10 4 11 33 0 36 17 6 29 -26 10
-26 11 -3 6 26 -5 74 7 126 32 17 8 37 13 45 12 20 -4 91 41 86 54 -2 7 -14
14 -28 17 -19 5 -12 9 39 24 34 9 60 21 57 26 -6 10 18 20 48 20 21 1 21 1 4
14 -10 8 -18 17 -18 20 3 22 -2 28 -29 37 -18 7 -30 18 -30 29 0 23 -26 45
-35 30 -4 -6 -1 -18 6 -27 7 -8 -8 -1 -34 17 -29 20 -56 30 -67 27 -11 -3 -20
-1 -20 4 0 5 -14 9 -30 9 -37 0 -53 32 -46 94 3 22 0 46 -6 53 -8 10 -6 13 8
13 34 0 47 15 35 39 -8 14 -8 21 -1 21 5 0 10 5 10 11 0 7 8 18 18 25 16 13
16 13 0 14 -25 0 -11 30 14 30 26 0 60 19 76 42 7 10 21 18 30 18 9 0 25 7 35
14 17 13 17 15 1 24 -14 8 -9 11 22 17 22 5 47 7 57 6 9 -1 17 2 17 7 0 5 14
15 30 22 17 7 30 16 30 19 0 4 14 6 30 3 17 -2 30 0 30 6 0 5 21 13 47 17 59
9 115 36 141 70 11 13 41 34 67 45 49 21 54 38 17 55 -16 7 -40 47 -29 50 17
3 60 32 58 39 -2 5 3 13 11 17 10 7 10 11 1 17 -8 5 2 8 24 8 20 0 38 5 41 12
2 7 17 12 34 12 26 0 29 2 18 15 -7 9 -11 17 -9 20 5 4 68 6 124 3 17 0 77 0
135 1 68 2 124 -3 160 -12 90 -25 93 -26 86 -59 -4 -20 -1 -30 9 -34 23 -9 18
-26 -6 -19 -13 4 -19 3 -16 -3 4 -5 -19 -12 -54 -15 -47 -4 -64 -10 -76 -26
-8 -12 -31 -30 -51 -42 -20 -11 -66 -37 -102 -59 -43 -26 -77 -39 -102 -39
-20 -1 -40 -5 -43 -11 -3 -5 3 -10 15 -10 12 0 18 -4 15 -10 -4 -6 -14 -8 -24
-5 -9 3 -26 -2 -37 -10 -10 -8 -27 -15 -36 -15 -10 0 -18 -3 -18 -6 0 -4 8
-13 18 -21 15 -12 14 -13 -10 -7 -18 4 -28 2 -28 -6 0 -7 -8 -9 -19 -5 -29 9
-73 -5 -67 -21 3 -8 1 -14 -4 -14 -6 0 -19 -8 -29 -17 -11 -10 -27 -24 -35
-31 -23 -18 -20 -40 10 -67 21 -19 23 -27 15 -43 -8 -16 -5 -26 19 -52 21 -23
26 -36 19 -41 -7 -4 -9 -14 -6 -23 9 -22 -12 -76 -29 -76 -11 0 -12 -4 -4 -17
19 -33 55 -72 70 -75 8 -2 21 -9 28 -16 14 -13 36 -7 27 8 -3 4 5 6 17 2 16
-4 18 -7 8 -10 -8 -3 -18 -9 -21 -15 -4 -5 -34 -10 -67 -10 -33 -1 -58 -5 -56
-9 10 -15 124 -6 133 10 5 9 11 11 15 4 6 -9 38 -5 91 12 11 4 1 -3 -23 -16
-44 -23 -50 -41 -15 -46 12 -2 35 10 56 27 39 34 49 38 41 16 -4 -8 -1 -21 5
-28 8 -11 4 -13 -22 -10 -17 2 -27 0 -20 -3 7 -3 10 -11 7 -18 -4 -11 9 -11
73 0 118 21 219 34 312 39 64 4 97 12 138 31 40 20 68 26 109 25 31 0 61 2 67
7 16 9 110 9 118 -1 3 -4 29 -3 58 3 29 5 64 7 78 4 l26 -7 -23 -12 -23 -12
27 -18 c18 -12 56 -20 113 -24 60 -4 88 -10 91 -20 3 -9 -2 -11 -14 -8 -58 16
-111 17 -124 2 -8 -9 -29 -15 -56 -15 -31 0 -46 -5 -53 -17 -8 -15 -12 -16
-22 -5 -20 19 -49 15 -49 -8 0 -18 -7 -20 -69 -20 -38 0 -103 7 -143 16 -83
18 -208 26 -208 14 0 -15 -34 -20 -73 -11 -20 5 -39 6 -42 1 -2 -4 -26 -10
-52 -13 -26 -3 -61 -13 -78 -21 -16 -9 -40 -16 -53 -16 -12 0 -25 -7 -28 -15
-4 -9 -19 -15 -35 -15 -16 0 -29 -4 -29 -9 0 -11 56 -41 79 -42 10 0 12 -2 4
-6 -22 -8 -14 -41 15 -61 41 -29 71 -36 98 -21 33 17 37 9 14 -36 -11 -22 -16
-41 -10 -45 5 -3 12 -24 15 -46 8 -46 -2 -59 -61 -79 -48 -16 -99 -4 -126 30
-12 15 -37 34 -55 42 -19 7 -36 20 -40 28 -7 20 -43 19 -123 -5 -65 -19 -100
-48 -100 -80 0 -6 -15 -26 -34 -43 l-33 -32 -1 -97 c0 -77 -4 -105 -19 -130
-24 -41 -69 -68 -129 -76 -51 -8 -63 -21 -40 -44 17 -18 2 -40 -20 -31 -8 3
-14 1 -14 -4 0 -21 -54 -34 -114 -28 -49 6 -65 12 -80 32 -18 25 -18 25 3 13
12 -6 27 -9 34 -7 29 11 -67 37 -135 37 -84 0 -253 -39 -302 -70 -18 -11 -91
-31 -167 -45 -74 -14 -141 -29 -149 -34 -10 -6 -28 -2 -50 10 -19 10 -39 18
-43 19 -16 0 14 -40 41 -55 15 -9 19 -14 9 -11 -10 3 -23 6 -28 6 -4 0 -15 14
-24 30 -11 22 -23 30 -43 30 -15 0 -34 5 -42 11 -13 9 -12 10 2 5 10 -3 20 0
24 5 3 6 15 9 25 6 11 -3 19 -1 19 4 0 5 -4 9 -10 9 -5 0 -7 7 -4 15 4 10 -3
18 -21 25 -41 15 -54 12 -61 -15 -5 -20 -13 -25 -36 -25 -17 0 -27 4 -23 10
12 19 -61 11 -80 -10 -9 -10 -42 -24 -74 -30 -31 -7 -66 -18 -78 -26 -24 -15
-103 -19 -103 -5 0 5 12 12 26 15 19 5 24 11 19 26 -5 16 -2 20 17 20 22 1 22
1 5 15 -20 14 -51 10 -41 -6 8 -14 -74 -10 -131 6 -27 7 -44 14 -37 14 20 1
14 29 -8 36 -28 9 -14 28 16 22 31 -6 31 6 -1 27 -15 10 -35 15 -48 11 -21 -6
-21 -5 -3 9 14 12 16 19 8 29 -9 10 -5 20 14 40 14 15 31 27 39 27 8 0 15 5
15 10 0 6 7 10 15 10 9 0 18 12 22 30 3 17 10 33 16 37 6 3 7 1 3 -6 -4 -6 0
-14 9 -18 10 -3 20 -1 24 4 3 6 15 12 25 14 21 4 44 34 34 44 -4 4 -25 9 -48
12 -23 3 -44 12 -47 19 -3 8 -13 14 -22 15 -10 0 -11 2 -3 6 18 7 14 33 -5 33
-11 0 -3 8 17 18 31 15 35 22 38 60 2 23 8 42 15 42 7 0 8 3 1 10 -16 16 -128
-23 -168 -58 -27 -24 -48 -32 -93 -36 -112 -12 -126 -18 -149 -61 -26 -51 -40
-140 -21 -132 8 3 20 1 28 -4 12 -7 11 -9 -2 -9 -10 0 -19 -12 -23 -31 -9 -45
-8 -49 11 -49 9 0 25 -7 35 -17 12 -10 18 -12 18 -4 0 7 5 9 11 6 6 -4 8 -13
5 -21 -3 -8 0 -23 6 -34 16 -24 -11 -56 -54 -66 -22 -4 -27 -9 -17 -15 7 -4
16 -4 19 0 11 18 47 21 61 5 11 -14 10 -19 -9 -34 -26 -21 -28 -30 -7 -30 16
0 34 -29 28 -47 -2 -6 2 -13 9 -16 7 -2 0 -3 -16 -1 -36 5 -56 -11 -56 -44 0
-20 -3 -23 -12 -14 -17 17 -28 15 -29 -5 0 -15 -2 -14 -9 3 -22 56 -178 59
-195 4 -5 -17 -10 -19 -21 -9 -8 7 -27 9 -50 5 -34 -7 -35 -6 -29 16 3 13 3
18 -2 12 -16 -22 -51 -33 -87 -27 -28 4 -36 2 -36 -10 0 -9 -9 -19 -20 -22
-11 -3 -20 -10 -20 -16 0 -13 -71 -42 -97 -40 -17 2 -26 -5 -34 -26 -27 -69
-46 -97 -79 -118 -19 -13 -49 -36 -67 -53 -17 -16 -38 -32 -47 -35 -9 -4 -13
-13 -10 -22 4 -10 0 -15 -11 -15 -31 0 -155 -40 -155 -50 0 -6 -10 -10 -23
-10 -43 0 -127 -30 -137 -50 -5 -10 -10 -34 -10 -52 0 -64 -36 -89 -150 -103
-52 -6 -109 -50 -91 -68 25 -25 9 -30 -76 -24 -99 6 -143 19 -143 42 0 11 -11
15 -42 15 -24 0 -53 3 -65 6 -32 9 -30 -12 6 -67 16 -24 32 -60 36 -80 6 -30
4 -36 -12 -36 -10 0 -24 4 -30 10 -9 6 -17 6 -26 -1 -7 -6 -23 -9 -35 -5 -12
3 -35 0 -51 -7 -27 -11 -33 -9 -64 14 -36 28 -103 36 -124 15 -6 -6 -42 -12
-81 -13 -72 -2 -122 -23 -122 -51 0 -7 9 -17 20 -20 11 -3 20 -10 20 -15 0 -5
10 -11 22 -13 14 -3 9 -5 -14 -6 -38 -1 -55 -21 -19 -21 10 0 24 -7 32 -16 8
-10 23 -14 43 -11 17 2 61 -6 100 -19 38 -13 82 -24 98 -24 15 0 28 -4 28 -10
0 -5 11 -10 25 -10 15 0 25 -6 25 -15 0 -18 40 -29 72 -20 20 5 21 4 5 -5 -9
-6 -15 -15 -12 -21 4 -5 -2 -9 -12 -9 -32 -1 80 -95 136 -116 28 -10 51 -23
51 -30 0 -7 3 -20 7 -29 6 -16 4 -16 -20 0 -15 9 -27 13 -27 7 0 -6 5 -14 10
-17 6 -3 10 -15 10 -26 0 -11 6 -22 14 -25 11 -4 11 -11 0 -42 -16 -44 -19
-126 -4 -117 5 3 3 -7 -5 -22 -7 -15 -19 -54 -25 -86 -6 -32 -21 -69 -33 -83
-20 -23 -30 -25 -92 -25 -39 0 -104 2 -145 6 -90 7 -161 9 -255 6 -38 -1 -104
5 -146 12 -50 9 -118 12 -200 9 -107 -4 -126 -2 -138 12 -26 32 -171 8 -171
-28 0 -13 -41 -26 -86 -26 -13 0 -24 -4 -24 -10 0 -5 -9 -10 -20 -10 -10 0
-24 -9 -30 -20 -9 -17 -7 -24 13 -43 13 -12 21 -30 19 -40 -3 -15 0 -18 17
-12 16 5 20 3 15 -9 -4 -9 -1 -16 6 -16 10 0 10 -3 0 -15 -7 -8 -9 -15 -5 -15
4 0 2 -6 -4 -14 -10 -12 -7 -32 14 -95 29 -88 29 -102 -2 -221 -23 -86 -46
-135 -67 -143 -8 -3 -18 -23 -21 -44 -3 -21 -10 -46 -15 -55 -15 -28 27 -35
54 -9 12 12 26 18 29 14 12 -12 8 -21 -13 -28 -27 -9 -28 -55 -1 -55 11 0 23
4 26 10 8 14 54 8 59 -7 4 -10 -1 -12 -19 -7 -24 6 -25 5 -25 -52 0 -53 -6
-89 -25 -149 -6 -19 -1 -20 97 -22 67 -1 121 3 154 13 28 8 66 13 84 12 42 -4
93 -48 84 -72 -5 -12 -1 -19 15 -23 12 -3 20 -11 18 -17 -10 -25 67 -86 108
-86 22 1 65 32 65 48 0 11 13 16 70 27 19 4 43 15 54 24 15 13 43 16 167 16
105 0 152 4 160 12 16 16 45 17 54 3 13 -21 35 -8 64 40 39 63 81 90 143 90
38 0 50 4 59 21 8 16 8 20 -1 14 -9 -6 -9 -3 -2 11 5 11 12 30 13 44 5 30 26
48 97 84 51 26 67 46 36 46 -8 0 -29 13 -45 29 -33 34 -38 73 -13 111 26 38
127 140 140 140 6 0 19 8 28 19 16 17 16 19 -1 25 -32 13 51 52 149 71 51 10
97 25 106 35 10 9 38 24 64 34 64 24 102 60 89 85 -8 15 -7 20 7 26 16 6 16 7
-1 16 -9 6 -15 14 -12 19 3 5 0 18 -7 29 -16 26 -2 68 33 94 36 26 131 58 144
48 11 -10 69 -22 103 -23 13 0 33 8 45 18 18 16 20 16 8 2 -12 -16 -10 -19 14
-28 14 -5 32 -10 38 -10 7 0 29 -9 50 -20 39 -21 82 -26 91 -11 3 5 21 12 41
15 19 4 38 12 42 19 5 7 37 32 71 55 50 33 68 40 82 32 27 -15 88 11 140 59
53 48 89 53 160 20 25 -12 66 -27 92 -35 40 -12 48 -19 59 -52 26 -82 77 -155
126 -181 15 -7 22 -19 20 -34 -1 -15 3 -21 13 -18 34 9 56 0 86 -34 18 -19 38
-35 45 -35 6 0 34 -20 61 -45 28 -25 57 -45 66 -45 8 0 24 -7 34 -16 12 -12
36 -17 78 -17 58 0 63 -2 93 -38 18 -21 46 -41 62 -45 29 -7 29 -7 5 -16 -38
-14 -15 -20 30 -8 48 13 70 2 70 -36 0 -27 28 -46 84 -53 37 -6 41 -10 74 -76
18 -38 40 -83 48 -98 13 -27 12 -29 -21 -48 -21 -13 -32 -26 -28 -34 2 -8 -5
-26 -16 -41 -26 -33 -27 -50 -1 -64 28 -15 70 -2 83 27 6 13 24 31 39 39 20
11 28 22 28 42 0 34 16 52 48 52 13 0 32 5 43 10 15 9 17 15 9 30 -5 10 -7 25
-4 34 6 17 -48 56 -79 56 -29 0 -31 27 -4 73 27 46 73 79 85 60 4 -6 28 -14
54 -18 47 -7 63 -18 83 -58 5 -11 22 -24 38 -28 24 -6 29 -3 42 21 8 16 12 35
10 43 -9 21 -86 82 -125 97 -19 7 -60 26 -90 40 -30 15 -78 33 -106 39 -54 13
-114 45 -114 60 0 5 9 13 20 16 19 6 29 44 13 46 -5 0 -48 1 -98 2 -102 3
-138 17 -216 85 -35 31 -52 57 -69 104 -24 68 -45 98 -68 98 -27 0 -153 73
-171 99 -35 50 -36 71 -5 97 26 22 27 25 12 34 -9 6 -25 18 -34 27 -13 14 -14
18 -3 21 8 3 21 10 29 17 8 7 31 16 50 20 19 4 44 13 55 19 13 8 38 11 70 7
37 -5 44 -8 28 -13 -16 -4 -23 -14 -23 -30 0 -32 42 -102 64 -106 21 -4 55 24
67 56 5 12 16 22 24 22 30 0 75 -30 75 -50 0 -17 -4 -18 -26 -10 -32 13 -64
13 -64 0 0 -9 65 -26 85 -22 6 1 15 -8 20 -20 6 -11 25 -29 43 -39 44 -23 48
-27 17 -22 -14 3 -25 1 -25 -5 0 -12 101 -82 118 -82 6 0 16 -10 23 -21 9 -18
17 -20 49 -15 47 7 105 -12 176 -59 29 -19 59 -35 67 -35 7 0 22 -9 31 -19 10
-11 40 -28 67 -37 27 -10 49 -24 49 -31 0 -7 7 -13 16 -13 9 0 41 -21 70 -46
40 -33 59 -44 74 -39 14 4 20 2 20 -9 0 -8 -4 -18 -10 -21 -5 -3 -8 -31 -6
-60 3 -38 0 -58 -10 -66 -15 -13 -19 -49 -5 -49 5 0 12 -7 15 -16 5 -14 4 -15
-8 -5 -9 8 -16 9 -21 2 -3 -6 18 -26 48 -45 49 -31 81 -76 55 -76 -15 0 74
-102 104 -119 16 -9 28 -22 28 -30 0 -19 62 -100 77 -101 6 0 15 5 18 10 4 7
11 8 18 2 7 -6 21 -12 32 -15 18 -4 17 -5 -3 -6 -32 -1 -59 -17 -72 -41 -9
-17 -4 -26 36 -64 38 -37 44 -47 35 -64 -7 -14 -6 -28 7 -55 19 -44 49 -49 58
-12 9 37 25 27 54 -32 26 -55 40 -66 40 -34 0 57 24 65 63 21 15 -16 34 -30
42 -30 17 0 18 4 6 28 -5 9 -14 35 -21 57 -7 22 -22 53 -32 68 -11 16 -18 30
-16 32 10 10 47 -9 51 -27 5 -16 9 -18 25 -9 10 5 29 7 42 4 20 -5 21 -3 15
18 -5 13 -8 30 -8 37 0 9 -8 11 -22 8 -14 -4 -28 1 -39 13 -16 18 -16 19 7 25
29 7 84 -8 108 -30 28 -25 52 -11 44 27 l-7 31 30 -22 c30 -22 52 -20 52 5 0
7 -13 18 -30 24 -19 6 -30 17 -30 28 0 35 -27 60 -72 66 -28 4 -48 13 -57 26
-16 24 -49 28 -57 6 -4 -8 -16 -15 -28 -15 -20 0 -20 1 4 19 24 19 24 20 7 39
-11 12 -14 23 -9 26 16 10 41 -4 35 -20 -7 -18 11 -18 27 1 10 12 6 20 -21 47
-82 81 -113 164 -70 188 26 14 38 13 23 -2 -17 -17 -15 -26 9 -33 12 -4 37
-23 56 -41 21 -22 43 -34 60 -34 l27 0 -34 30 c-19 16 -30 29 -23 30 6 0 25
-12 42 -26 21 -17 37 -24 49 -19 15 6 13 10 -13 31 -27 22 -28 24 -9 24 12 0
33 -10 48 -21 19 -15 31 -18 38 -11 7 7 -5 18 -40 36 -42 21 -62 41 -62 62 0
2 17 4 39 4 22 0 44 6 51 15 9 11 23 14 45 9 18 -3 41 -1 52 4 32 17 172 -6
211 -35 27 -21 39 -23 77 -17 32 4 45 3 45 -6 0 -23 106 23 115 50 6 19 84 33
155 29 19 -1 51 -3 72 -3 20 -1 36 -5 35 -11 -1 -5 13 -17 31 -26 l32 -17 -37
-7 c-54 -10 -80 -25 -62 -36 9 -6 -8 -9 -48 -9 -34 0 -69 -3 -79 -7 -12 -4
-15 -3 -10 5 4 7 -3 14 -19 18 -14 3 -25 10 -25 15 0 5 -9 9 -20 9 -11 0 -20
-4 -20 -10 0 -5 7 -10 16 -10 8 0 12 -5 9 -10 -3 -5 0 -10 7 -10 8 0 5 -5 -6
-11 -13 -8 -25 -8 -43 0 -13 6 -43 11 -67 11 -37 0 -52 -7 -100 -46 -50 -42
-56 -50 -56 -85 0 -44 6 -46 88 -30 l43 9 -22 -24 c-22 -23 -22 -24 -3 -45 10
-12 18 -24 16 -27 -2 -3 5 -9 15 -13 15 -6 14 -8 -9 -14 -16 -4 -28 -13 -28
-20 0 -13 27 -39 50 -48 8 -3 0 -6 -18 -6 -26 -1 -34 4 -42 24 -7 18 -17 25
-35 25 -28 0 -35 -27 -10 -37 13 -4 12 -8 -6 -21 -19 -13 -20 -16 -5 -24 10
-5 37 -11 62 -13 24 -1 56 -10 70 -20 24 -16 26 -21 20 -64 -6 -47 -6 -48 26
-58 l33 -10 -27 -8 c-18 -4 -28 -14 -28 -26 0 -26 -26 -24 -58 6 -15 14 -30
25 -35 25 -12 0 11 -38 31 -49 9 -6 11 -11 5 -11 -7 0 -13 -7 -13 -14 0 -12 6
-13 33 -4 17 6 37 16 42 23 6 6 44 14 85 17 l75 5 -40 -18 c-22 -10 -55 -19
-72 -19 -18 0 -33 -4 -33 -10 0 -5 16 -10 35 -10 19 0 35 -5 35 -11 0 -6 6 -9
13 -6 6 2 11 10 9 17 -2 9 7 11 31 6 25 -5 38 -2 47 9 12 14 15 14 31 -1 12
-11 28 -15 46 -11 25 5 30 1 44 -33 21 -48 69 -65 146 -51 28 6 59 8 70 5 18
-5 22 1 33 45 14 61 34 70 117 51 82 -18 117 -35 173 -85 57 -50 50 -49 157
-35 106 14 122 21 188 74 30 25 60 46 66 46 5 0 27 -9 49 -20 52 -26 81 -25
126 5 20 14 43 25 51 25 18 0 30 -33 14 -38 -7 -2 -24 -15 -39 -27 -24 -21
-25 -26 -14 -44 16 -27 15 -41 -4 -79 -14 -29 -14 -33 0 -48 12 -11 16 -31 14
-72 -2 -37 2 -57 10 -60 8 -2 4 -13 -13 -34 -14 -16 -25 -38 -25 -48 0 -10
-15 -45 -34 -77 -19 -32 -37 -68 -41 -80 -7 -24 3 -29 49 -24 16 1 18 -4 12
-39 -6 -39 -5 -40 21 -40 16 0 55 -14 88 -30 71 -36 89 -37 135 -8 19 12 174
90 343 175 335 167 367 189 367 254 0 20 7 54 16 75 14 33 14 46 3 92 -15 65
-7 83 45 95 20 5 58 29 85 53 27 24 54 44 60 44 5 0 19 10 31 22 19 21 23 21
112 10 51 -6 104 -10 117 -9 16 1 25 -4 27 -16 4 -30 13 -33 46 -14 16 9 33
15 38 12 4 -3 13 2 20 10 11 13 9 20 -10 40 -13 14 -20 31 -16 40 4 11 -5 20
-29 32 l-34 16 21 35 c17 28 18 36 7 42 -7 5 -14 17 -14 27 -1 38 -18 114 -26
119 -17 10 -9 23 19 26 25 3 27 7 30 50 3 39 0 49 -18 58 -11 6 -25 8 -31 4
-6 -3 -25 -3 -42 0 -42 8 -66 59 -41 87 19 21 11 55 -18 70 -37 20 -3 32 114
39 62 4 121 11 131 15 15 6 17 23 17 132 0 116 -1 125 -20 130 -19 5 -19 21
-13 2178 l6 2173 -114 6 c-63 3 -136 9 -164 12 -45 6 -48 5 -36 -10 8 -9 46
-26 85 -38 39 -11 72 -22 73 -22 10 -8 -24 -83 -52 -116 -38 -45 -37 -67 4
-76 70 -15 76 -20 76 -52 1 -22 -9 -42 -27 -63 -15 -17 -28 -36 -28 -44 0 -11
-7 -12 -31 -5 -18 5 -37 6 -43 3 -6 -4 -5 0 2 9 17 21 -1 28 -98 38 -41 5 -91
11 -110 15 -29 5 -45 0 -100 -33 -38 -23 -90 -45 -125 -52 -33 -7 -72 -19 -87
-26 -15 -8 -50 -19 -78 -25 -66 -14 -79 -37 -44 -78 14 -17 40 -34 57 -39 20
-5 31 -15 32 -27 2 -11 6 -28 10 -37 6 -15 3 -16 -27 -7 -18 5 -51 7 -73 3
-24 -3 -66 1 -102 10 -33 9 -75 16 -91 16 -17 0 -34 5 -37 10 -3 6 -21 10 -40
10 -19 0 -55 11 -81 25 -60 32 -132 34 -157 5 -9 -11 -28 -20 -43 -20 -40 0
-25 -20 52 -67 59 -38 74 -43 106 -38 47 8 79 -1 71 -21 -3 -7 0 -14 6 -14 28
0 6 -19 -40 -34 -38 -13 -58 -15 -82 -7 -18 5 -58 13 -89 17 -34 4 -59 12 -62
20 -3 8 -17 14 -31 14 -14 0 -25 5 -25 10 0 6 5 10 11 10 5 0 7 5 3 11 -4 7
-29 8 -75 4 -55 -6 -74 -4 -94 9 -15 10 -22 22 -19 31 7 16 -24 71 -56 100
-25 23 -26 35 0 35 15 0 20 7 20 26 0 21 3 24 22 19 17 -6 20 -4 15 10 -4 9
-7 18 -7 21 0 11 -110 57 -164 69 -34 7 -55 14 -48 14 31 2 -3 21 -48 27 -34
4 -47 10 -44 19 4 8 -6 16 -24 20 -16 3 -44 17 -63 31 l-33 24 31 0 c19 0 33
-6 37 -15 8 -21 71 -47 121 -51 67 -5 129 -16 142 -26 7 -6 28 -7 46 -4 22 4
53 -1 90 -13 36 -13 110 -24 197 -31 77 -5 170 -17 207 -26 192 -45 575 42
636 145 22 37 22 38 -8 45 -14 4 -24 10 -24 14 8 47 -27 82 -81 82 -22 0 -40
3 -40 8 0 10 -101 46 -123 43 -10 -1 -54 10 -98 24 -44 15 -86 24 -94 21 -8
-3 -30 5 -49 18 -19 12 -56 29 -83 35 -26 7 -76 22 -110 33 -126 39 -221 58
-328 65 -64 3 -119 12 -130 19 -29 19 -138 -3 -160 -31 -15 -20 -15 -20 -8 0
3 11 11 26 17 34 9 11 2 13 -37 10 -26 -2 -47 0 -47 5 0 5 -25 6 -57 2 -38 -4
-54 -3 -48 3 6 5 34 11 64 13 56 3 81 24 39 32 -13 2 -57 11 -98 20 -91 20
-94 20 -87 2 4 -11 1 -13 -10 -9 -9 4 -21 -1 -27 -9 -9 -12 -21 -14 -61 -7
-77 12 -84 11 -78 -10 7 -27 -10 -33 -61 -20 -39 10 -51 9 -88 -9 -24 -11 -59
-23 -78 -27 -19 -4 -46 -19 -58 -33 -19 -20 -26 -22 -33 -11 -14 23 -11 28 31
49 22 11 40 25 40 30 0 14 -48 35 -115 50 -83 17 -98 26 -83 49 24 38 -25 77
-85 68 -49 -7 -14 9 71 33 84 23 95 32 64 49 -30 16 -204 14 -231 -4 -18 -11
-12 -25 12 -26 l22 -1 -23 -6 c-13 -4 -22 -11 -20 -15 3 -8 -18 -23 -37 -27
-5 -1 -18 -6 -27 -11 -22 -12 -22 -8 -3 38 19 45 19 43 -7 43 -29 0 -95 -32
-88 -43 3 -5 -19 -16 -47 -26 -29 -10 -64 -30 -77 -44 -16 -17 -35 -27 -53
-27 -26 1 -27 1 -8 12 28 16 48 38 42 45 -7 6 81 53 99 53 20 0 24 30 7 50
-10 11 -20 19 -23 19 -3 -1 -24 -7 -48 -12z m-372 -159 c-12 -10 -18 -22 -14
-29 4 -7 -7 -4 -24 6 -39 24 -32 40 19 40 40 0 40 0 19 -17z m-737 -102 c4
-10 0 -12 -14 -9 -10 3 -16 9 -13 14 8 13 21 11 27 -5z m56 -52 c14 -12 -19
-1 -35 12 -18 14 -18 14 6 3 14 -6 27 -13 29 -15z m-216 -4 c-3 -12 -8 -19
-11 -16 -5 6 5 36 12 36 2 0 2 -9 -1 -20z m-107 -29 c-3 -5 1 -14 9 -21 15
-12 10 -40 -7 -40 -7 0 -6 5 1 13 13 17 5 27 -23 27 -20 0 -20 0 0 15 22 17
27 18 20 6z m2664 -5 c0 -3 -4 -8 -10 -11 -5 -3 -10 -1 -10 4 0 6 5 11 10 11
6 0 10 -2 10 -4z m-2800 -86 c0 -5 -4 -10 -10 -10 -5 0 -10 5 -10 10 0 6 5 10
10 10 6 0 10 -4 10 -10z m37 -16 c-3 -3 -12 -4 -19 -1 -8 3 -5 6 6 6 11 1 17
-2 13 -5z m113 2 c0 -3 -4 -8 -10 -11 -5 -3 -10 -1 -10 4 0 6 5 11 10 11 6 0
10 -2 10 -4z m-52 -13 c-10 -2 -26 -2 -35 0 -10 3 -2 5 17 5 19 0 27 -2 18 -5z
m-258 -63 c-8 -5 -19 -10 -25 -10 -5 0 -3 5 5 10 8 5 20 10 25 10 6 0 3 -5 -5
-10z m-35 -130 c20 -5 7 -7 -39 -4 -37 1 -71 5 -74 8 -8 8 77 5 113 -4z m-282
-167 c-13 -2 -35 -2 -50 0 -16 2 -5 4 22 4 28 0 40 -2 28 -4z m-193 -142 c0
-6 -4 -13 -10 -16 -5 -3 -10 1 -10 9 0 9 5 16 10 16 6 0 10 -4 10 -9z m40 -21
c-19 -13 -30 -13 -30 0 0 6 10 10 23 10 18 0 19 -2 7 -10z m-174 -65 c-20 -14
-42 -25 -49 -25 -7 0 -3 6 8 12 30 16 31 18 15 28 -11 7 -4 10 24 10 l39 0
-37 -25z m-48 -59 c-2 -1 -12 -8 -22 -16 -18 -14 -18 -14 -6 7 8 12 18 19 23
16 4 -3 7 -6 5 -7z m-43 -96 c-3 -5 -12 -10 -18 -10 -7 0 -6 4 3 10 19 12 23
12 15 0z m0 -30 c-27 -12 -43 -12 -25 0 8 5 22 9 30 9 10 0 8 -3 -5 -9z m-86
-39 c7 -5 9 -11 4 -14 -13 -8 -122 -12 -130 -4 -3 4 9 7 28 8 19 0 43 4 54 9
26 11 28 11 44 1z m-639 -146 c0 -8 -4 -15 -8 -15 -5 0 -9 7 -9 15 0 8 4 15 9
15 4 0 8 -7 8 -15z m123 8 c-7 -2 -19 -2 -25 0 -7 3 -2 5 12 5 14 0 19 -2 13
-5z m-110 -89 c-7 -19 -10 -18 -16 5 -3 13 -1 18 9 14 7 -2 10 -11 7 -19z
m-195 -61 c-10 -2 -26 -2 -35 0 -10 3 -2 5 17 5 19 0 27 -2 18 -5z m-101 -196
c0 -7 -11 -12 -26 -11 -34 3 -33 2 -26 14 9 15 52 12 52 -3z m33 -12 c0 -8 -4
-15 -8 -15 -5 0 -9 7 -9 15 0 8 4 15 9 15 4 0 8 -7 8 -15z m35 -5 c-3 -5 -11
-10 -16 -10 -6 0 -7 5 -4 10 3 6 11 10 16 10 6 0 7 -4 4 -10z m185 -24 c0 -2
-7 -6 -15 -10 -8 -3 -15 -1 -15 4 0 6 7 10 15 10 8 0 15 -2 15 -4z m1838 -150
c-25 -18 -24 -40 0 -27 14 8 19 6 19 -5 0 -9 -11 -14 -28 -14 -34 0 -59 9 -59
22 0 6 6 8 14 5 7 -3 20 3 29 14 9 10 22 19 29 19 8 -1 6 -6 -4 -14z m-118 -6
c15 0 30 -7 33 -15 5 -11 1 -12 -20 -4 -14 5 -35 8 -46 7 -11 -2 -22 3 -25 11
-3 10 0 12 12 8 10 -4 30 -7 46 -7z m-1800 -10 c-8 -5 -22 -9 -30 -9 -10 0 -8
3 5 9 27 12 43 12 25 0z m3680 -24 c0 -3 -4 -8 -10 -11 -5 -3 -10 -1 -10 4 0
6 5 11 10 11 6 0 10 -2 10 -4z m-2745 -205 c-3 -6 -14 -11 -23 -11 -13 0 -13
2 4 14 21 15 30 14 19 -3z m-358 -187 c-3 -3 -12 -4 -19 -1 -8 3 -5 6 6 6 11
1 17 -2 13 -5z m-70 -15 c-12 -7 -16 -17 -11 -32 6 -21 6 -22 -9 -2 -13 16
-18 18 -41 7 -14 -6 -26 -18 -26 -27 0 -8 -4 -15 -10 -15 -5 0 -10 5 -10 12 0
16 31 48 47 48 7 0 13 5 13 10 0 6 15 10 33 10 27 -1 29 -2 14 -11z m-124 -56
c-7 -2 -19 -2 -25 0 -7 3 -2 5 12 5 14 0 19 -2 13 -5z m2345 -30 c-10 -2 -28
-2 -40 0 -13 2 -5 4 17 4 22 1 32 -1 23 -4z m-71 -9 c-3 -3 -12 -4 -19 -1 -8
3 -5 6 6 6 11 1 17 -2 13 -5z m276 -1 c-7 -2 -19 -2 -25 0 -7 3 -2 5 12 5 14
0 19 -2 13 -5z m248 -10 c13 -16 12 -17 -3 -4 -10 7 -18 15 -18 17 0 8 8 3 21
-13z m62 -20 c-7 -2 -21 -2 -30 0 -10 3 -4 5 12 5 17 0 24 -2 18 -5z m98 -34
c33 -18 58 -34 55 -36 -2 -2 -32 12 -67 31 -79 44 -69 48 12 5z m-2364 -31
c-3 -8 -6 -5 -6 6 -1 11 2 17 5 13 3 -3 4 -12 1 -19z m2605 4 c-12 -8 -72 -4
-72 4 0 2 19 4 43 4 25 0 37 -4 29 -8z m-129 -19 c-7 -2 -21 -2 -30 0 -10 3
-4 5 12 5 17 0 24 -2 18 -5z m-939 -88 c-6 -34 -7 -35 -53 -35 l-46 0 31 19
c17 10 37 33 44 51 11 26 15 29 22 16 5 -9 6 -32 2 -51z m-1324 -125 c13 -8
13 -10 -2 -10 -9 0 -20 5 -23 10 -8 13 5 13 25 0z m190 -120 c-20 -13 -33 -13
-25 0 3 6 14 10 23 10 15 0 15 -2 2 -10z m-1444 -725 c18 -13 18 -14 -4 -8
-12 3 -25 9 -28 14 -8 14 10 11 32 -6z m1150 -6 c19 -22 19 -22 -3 -10 -13 6
-23 16 -23 21 0 15 5 12 26 -11z m644 -389 c0 -5 -2 -10 -4 -10 -3 0 -8 5 -11
10 -3 6 -1 10 4 10 6 0 11 -4 11 -10z m3833 -12 c4 -14 -61 -38 -104 -38 -31
0 -58 -25 -37 -34 7 -3 2 -3 -12 0 -14 2 -45 1 -69 -3 l-43 -8 18 -23 c11 -12
42 -34 69 -48 28 -14 40 -22 27 -19 -13 4 -29 1 -37 -5 -8 -7 -15 -9 -15 -4 0
4 -20 -15 -45 -42 -39 -42 -43 -51 -30 -60 24 -18 18 -22 -34 -26 -30 -2 -53
2 -60 10 -14 14 -51 16 -51 2 0 -5 6 -10 13 -11 6 0 0 -5 -15 -11 -40 -14 -35
-24 19 -37 25 -7 64 -28 87 -47 32 -27 46 -33 67 -29 15 4 30 2 33 -4 3 -5 38
-22 78 -37 43 -16 105 -52 156 -91 109 -83 118 -87 127 -66 4 11 9 14 13 7 10
-15 61 -40 97 -48 17 -4 51 -20 75 -36 25 -17 50 -30 56 -30 6 0 23 -32 38
-72 l26 -72 -27 -34 c-29 -36 -62 -55 -153 -92 -76 -31 -108 -34 -168 -17 -46
14 -58 14 -137 -2 -82 -18 -142 -16 -175 4 -7 4 -36 8 -66 9 -40 1 -59 7 -77
24 -25 24 -48 28 -77 12 -26 -14 -46 -4 -60 30 -15 36 -36 43 -94 35 -50 -8
-86 6 -86 34 0 24 -26 34 -53 20 -14 -8 -56 -10 -133 -5 -96 6 -124 4 -195
-15 -81 -20 -207 -75 -277 -120 -30 -20 -39 -21 -85 -11 -29 6 -103 13 -164
14 -85 2 -113 5 -113 15 0 7 -6 13 -13 13 -7 0 -37 7 -66 16 -58 17 -104 54
-95 77 5 15 -42 71 -84 99 l-25 16 36 16 c32 13 37 19 37 48 0 49 24 78 64 78
19 0 38 6 43 13 13 15 23 61 26 110 1 29 9 44 30 59 28 20 37 44 13 35 -11 -4
-11 -1 -2 18 8 17 14 21 23 14 6 -6 31 -9 55 -7 42 3 43 4 52 47 8 36 7 46 -7
56 -23 17 -21 34 3 28 12 -3 22 1 26 11 3 9 16 16 29 16 25 0 120 80 130 109
4 15 20 19 87 24 45 4 84 10 87 15 3 4 14 0 24 -11 18 -18 18 -19 -22 -16 -22
2 -43 0 -47 -4 -4 -4 5 -7 20 -7 17 0 25 -4 21 -11 -4 -6 -20 -7 -38 -4 -30 7
-31 6 -16 -10 21 -21 115 -36 244 -37 71 -1 104 -5 113 -14 10 -12 10 -14 -5
-14 -10 0 -57 -14 -105 -32 -102 -38 -117 -63 -45 -71 23 -2 58 -10 77 -17 19
-7 41 -14 48 -16 18 -5 16 -74 -3 -74 -23 0 -18 -16 10 -28 48 -22 96 -15 149
23 27 19 61 35 75 35 14 0 50 12 79 27 44 22 57 25 73 15 10 -7 41 -12 69 -12
42 0 50 3 50 19 0 11 9 21 21 24 30 8 18 31 -17 35 -16 2 -62 -2 -103 -9 l-74
-12 -44 47 c-24 27 -47 45 -51 42 -3 -4 12 -24 33 -46 22 -22 35 -40 30 -40
-5 0 -23 16 -41 35 -17 19 -41 35 -52 35 -15 0 -19 5 -15 18 3 14 11 18 31 14
24 -5 26 -4 13 12 -16 19 -16 20 27 34 39 13 42 8 5 -12 -26 -14 -26 -15 -6
-16 12 0 37 13 55 29 44 38 91 61 124 61 15 0 43 4 63 9 20 6 65 17 101 26 36
10 70 21 75 25 12 9 125 18 125 9 0 -7 108 5 116 14 12 12 52 8 57 -5z m-1166
-94 c-3 -3 -12 -4 -19 -1 -8 3 -5 6 6 6 11 1 17 -2 13 -5z m367 -75 c5 -4 -1
-5 -13 -2 -11 3 -28 0 -36 -7 -8 -7 -15 -8 -15 -3 0 6 -10 15 -22 21 -19 10
-14 11 27 6 28 -4 54 -10 59 -15z m-5958 -150 c21 -42 17 -46 -9 -8 -41 60
-43 66 -23 50 9 -8 24 -27 32 -42z m3404 5 c0 -2 -7 -4 -15 -4 -8 0 -15 4 -15
10 0 5 7 7 15 4 8 -4 15 -8 15 -10z m567 -1173 c12 -6 33 -11 47 -11 35 0 33
-20 -1 -21 -16 -1 -32 0 -38 1 -28 8 -119 41 -123 45 -10 10 95 -3 115 -14z"/>
<path d="M9540 7510 c0 -5 5 -10 10 -10 6 0 10 5 10 10 0 6 -4 10 -10 10 -5 0
-10 -4 -10 -10z"/>
<path d="M9565 7490 c-3 -5 1 -10 9 -10 9 0 16 5 16 10 0 6 -4 10 -9 10 -6 0
-13 -4 -16 -10z"/>
<path d="M7678 7143 c-10 -2 -18 -9 -18 -14 0 -5 -13 -9 -28 -9 -28 0 -52 -15
-52 -33 0 -5 20 -7 45 -5 24 3 42 2 39 -3 -8 -14 49 -10 69 5 22 17 22 28 -3
49 -21 17 -23 18 -52 10z"/>
<path d="M7506 7033 c-3 -4 -21 -7 -39 -7 -22 -1 -33 -6 -35 -18 -3 -15 4 -18
32 -18 20 0 36 5 36 10 0 6 7 10 15 10 8 0 15 7 15 15 0 16 -12 20 -24 8z"/>
<path d="M7397 7003 c-12 -11 -8 -23 8 -23 8 0 15 7 15 15 0 16 -12 20 -23 8z"/>
<path d="M7331 6976 c-15 -16 -19 -26 -11 -31 14 -9 60 21 60 40 0 22 -24 18
-49 -9z"/>
<path d="M7535 6830 c-19 -8 -19 -9 3 -9 12 -1 22 4 22 9 0 6 -1 10 -2 9 -2 0
-12 -4 -23 -9z"/>
<path d="M12346 6781 c-7 -10 43 -25 52 -16 7 7 -18 25 -35 25 -6 0 -14 -4
-17 -9z"/>
<path d="M7300 6680 c0 -5 7 -7 15 -4 8 4 15 8 15 10 0 2 -7 4 -15 4 -8 0 -15
-4 -15 -10z"/>
<path d="M7240 6665 c-17 -20 -11 -24 23 -18 15 3 26 11 24 17 -6 18 -33 18
-47 1z"/>
<path d="M7252 6629 c2 -6 8 -10 13 -10 5 0 11 4 13 10 2 6 -4 11 -13 11 -9 0
-15 -5 -13 -11z"/>
<path d="M2590 6621 c0 -6 5 -13 10 -16 32 -20 -28 -48 -70 -32 -25 10 -34 8
-61 -12 -30 -23 -33 -23 -66 -7 -32 15 -103 22 -103 10 0 -3 5 -14 10 -25 16
-29 -6 -24 -35 7 -23 25 -28 26 -89 19 -67 -7 -91 -21 -80 -49 4 -11 1 -16
-10 -16 -9 0 -16 4 -16 9 0 15 -69 51 -99 51 -37 0 -41 -6 -28 -40 8 -22 8
-32 -3 -44 -12 -15 -15 -15 -30 -1 -24 22 -37 19 -71 -16 -28 -29 -31 -30 -36
-11 -2 11 -14 24 -26 30 -17 8 -18 11 -6 11 9 1 19 7 22 15 7 17 -23 45 -41
39 -8 -3 -20 4 -28 15 -7 11 -30 23 -51 27 -20 4 -46 13 -57 21 -11 8 -39 14
-61 14 -86 0 -121 -29 -37 -31 45 -2 46 -2 12 -9 l-35 -7 25 -12 c25 -11 25
-11 -5 -6 -78 15 -125 17 -125 6 0 -6 -6 -11 -14 -11 -18 0 -26 -22 -19 -49 5
-19 1 -21 -38 -21 -45 -1 -89 -22 -70 -35 6 -3 20 -3 32 0 11 4 33 2 49 -5 22
-9 42 -9 87 1 64 14 204 18 196 7 -2 -5 6 -8 19 -9 19 -1 18 -2 -8 -10 -17 -5
-37 -16 -44 -24 -10 -13 -9 -15 11 -16 36 -2 -159 -27 -218 -28 -29 -1 -53 -5
-53 -9 0 -25 28 -29 151 -24 126 5 129 4 129 -16 0 -26 37 -49 53 -33 20 20
30 11 11 -10 l-19 -22 28 7 c19 4 26 3 22 -4 -3 -5 -13 -10 -21 -10 -8 0 -17
-7 -21 -16 -4 -12 -17 -15 -57 -12 -48 3 -51 2 -51 -22 0 -24 1 -24 95 -25 52
-1 109 3 125 7 17 5 41 4 55 -1 206 -76 550 -98 550 -36 0 9 31 16 103 24 56
7 125 21 152 33 28 11 75 27 105 35 30 9 57 19 60 24 3 4 12 4 20 -1 20 -13
70 -13 70 0 0 6 11 10 24 10 13 0 29 7 36 15 7 8 9 15 5 15 -4 0 -2 7 5 15 6
8 19 14 28 13 39 -3 59 3 85 26 16 14 34 27 40 30 8 3 6 10 -6 19 -14 11 -15
16 -5 20 10 4 10 6 0 6 -9 1 -10 6 -2 21 9 17 6 21 -31 31 -30 9 -51 10 -80 2
-37 -10 -39 -9 -24 7 23 25 19 29 -27 23 -37 -4 -40 -3 -23 8 11 7 22 14 25
16 9 8 -25 23 -53 23 -25 0 -27 2 -17 20 6 11 20 20 32 20 14 0 18 4 13 9 -11
11 -91 -4 -110 -19 -15 -12 -55 -1 -55 16 0 7 -9 18 -19 24 -25 13 -141 13
-141 1z m-995 -91 c3 -5 1 -10 -4 -10 -6 0 -11 5 -11 10 0 6 2 10 4 10 3 0 8
-4 11 -10z m98 -147 c-13 -2 -33 -2 -45 0 -13 2 -3 4 22 4 25 0 35 -2 23 -4z"/>
<path d="M7144 6589 c-8 -14 14 -29 33 -22 7 3 13 11 13 19 0 17 -36 19 -46 3z"/>
<path d="M11182 6504 c4 -20 40 -35 57 -25 10 6 9 12 -4 25 -22 21 -58 21 -53
0z"/>
<path d="M11255 6510 c3 -5 15 -10 25 -10 10 0 22 5 25 10 4 6 -7 10 -25 10
-18 0 -29 -4 -25 -10z"/>
<path d="M9310 6481 c0 -13 17 -17 56 -13 50 6 42 22 -11 22 -25 0 -45 -4 -45
-9z"/>
<path d="M6972 6468 c-22 -22 -13 -28 38 -28 52 0 64 12 31 30 -26 13 -54 13
-69 -2z"/>
<path d="M6460 6210 c0 -15 30 -27 56 -22 30 6 31 18 2 26 -34 9 -58 7 -58 -4z"/>
<path d="M8738 6192 c-11 -5 -14 -12 -9 -20 11 -19 45 -11 49 11 4 18 -10 21
-40 9z"/>
<path d="M3966 6112 c-6 -11 21 -52 35 -52 13 0 11 34 -3 48 -14 14 -25 15
-32 4z"/>
<path d="M3900 6101 c0 -5 11 -16 25 -25 14 -9 25 -23 25 -31 0 -21 16 -19 25
2 4 13 -2 25 -22 40 -29 24 -53 30 -53 14z"/>
<path d="M3870 6081 c0 -12 5 -21 10 -21 6 0 10 6 10 14 0 8 -4 18 -10 21 -5
3 -10 -3 -10 -14z"/>
<path d="M3906 6014 c-12 -32 -6 -44 23 -44 17 0 33 -4 36 -10 9 -15 35 -12
35 5 0 13 -65 65 -81 65 -4 0 -10 -7 -13 -16z"/>
<path d="M3907 5943 c-11 -10 -8 -53 3 -53 18 0 31 37 16 49 -7 6 -16 8 -19 4z"/>
<path d="M5960 5940 c0 -5 9 -10 20 -10 11 0 20 5 20 10 0 6 -9 10 -20 10 -11
0 -20 -4 -20 -10z"/>
<path d="M4970 5833 c-36 -46 -10 -69 36 -30 18 16 25 29 21 40 -9 25 -33 21
-57 -10z"/>
<path d="M4850 5782 c0 -16 7 -37 15 -48 16 -21 20 -64 6 -64 -5 0 -11 12 -13
27 -5 39 -23 39 -35 -2 -9 -28 -8 -41 7 -69 l17 -35 32 29 c32 30 43 51 55
107 6 27 3 37 -20 58 -37 34 -64 33 -64 -3z"/>
<path d="M5930 5800 c0 -5 5 -10 10 -10 6 0 10 5 10 10 0 6 -4 10 -10 10 -5 0
-10 -4 -10 -10z"/>
<path d="M8750 5726 c0 -10 9 -16 21 -16 24 0 21 23 -4 28 -10 2 -17 -3 -17
-12z"/>
<path d="M8436 5680 c-18 -18 -18 -19 15 -39 19 -12 37 -21 42 -21 10 0 9 18
-3 25 -15 10 -12 35 5 35 8 0 15 5 15 10 0 17 -54 10 -74 -10z"/>
<path d="M6015 5610 c-3 -5 -1 -10 4 -10 6 0 11 5 11 10 0 6 -2 10 -4 10 -3 0
-8 -4 -11 -10z"/>
<path d="M8266 5520 c-11 -3 -15 -9 -10 -12 23 -13 44 -16 49 -9 8 14 -19 29
-39 21z"/>
<path d="M8265 5470 c-3 -5 -2 -10 4 -10 5 0 13 5 16 10 3 6 2 10 -4 10 -5 0
-13 -4 -16 -10z"/>
<path d="M8928 5473 c-39 -4 -54 -23 -19 -23 11 0 27 -8 37 -17 16 -16 16 -17
-2 -24 -11 -4 -37 -11 -59 -15 -22 -3 -34 -9 -27 -11 10 -4 10 -8 1 -19 -9
-11 -6 -16 15 -25 20 -9 23 -15 15 -25 -6 -7 -8 -18 -4 -24 5 -8 18 -2 39 18
20 20 45 32 71 35 56 7 114 29 120 46 7 19 -13 41 -37 41 -18 0 -19 -2 -7 -17
12 -15 12 -16 -4 -10 -10 4 -37 7 -60 8 l-42 1 48 15 c51 15 58 26 28 43 -19
10 -40 10 -113 3z"/>
<path d="M4600 5460 c0 -7 24 -20 36 -20 13 0 1 19 -16 23 -11 3 -20 2 -20 -3z"/>
<path d="M4670 5460 c-8 -5 -12 -12 -8 -15 10 -10 49 5 43 16 -8 11 -16 11
-35 -1z"/>
<path d="M4545 5430 c-3 -5 -4 -14 0 -19 3 -5 1 -12 -5 -16 -17 -10 -1 -25 26
-25 14 0 23 4 19 9 -9 15 16 24 28 11 9 -10 9 -11 0 -6 -16 9 -17 -10 -2 -19
6 -4 17 1 24 11 19 25 18 34 -1 34 -8 0 -22 7 -30 15 -18 17 -50 20 -59 5z"/>
<path d="M4490 5350 c-64 -11 -162 -14 -183 -5 -26 11 -67 -11 -67 -35 0 -14
-7 -20 -21 -20 -14 0 -19 -5 -16 -14 3 -8 1 -17 -6 -20 -9 -3 -8 -8 3 -15 12
-9 10 -11 -12 -11 -16 0 -28 -5 -28 -11 0 -5 -4 -8 -9 -4 -13 7 -24 -12 -28
-49 -4 -36 -13 -48 -13 -16 0 17 -3 20 -13 12 -10 -8 -16 -6 -25 9 -14 21 -57
27 -49 6 3 -10 -3 -12 -23 -9 -33 5 -49 -23 -21 -37 10 -6 21 -8 24 -5 3 3 15
-4 26 -15 12 -12 29 -21 39 -21 10 0 23 -5 28 -10 7 -7 19 -4 37 10 20 16 27
18 27 7 0 -7 -11 -19 -25 -25 -14 -6 -25 -16 -25 -22 0 -5 -9 -10 -19 -10 -34
0 -33 -19 1 -23 29 -3 28 -4 -9 -5 -41 -2 -55 -13 -33 -27 18 -11 11 -25 -12
-25 -22 -1 -22 -1 -4 -11 24 -14 94 -5 114 15 13 13 13 17 1 32 -13 16 -12 16
6 7 11 -6 27 -8 35 -5 8 2 -12 -22 -45 -54 -50 -49 -66 -59 -95 -59 -29 0 -36
-4 -38 -24 -3 -18 0 -22 12 -18 9 4 16 2 16 -3 0 -24 42 -7 78 32 l40 42 -8
-40 c-4 -21 -11 -51 -15 -66 -6 -23 -4 -28 11 -28 32 0 42 13 49 62 7 49 20
56 43 26 18 -25 35 -23 22 2 -16 31 -7 24 28 -18 l31 -39 -22 -21 c-12 -12
-32 -30 -44 -41 -28 -25 -20 -57 19 -77 29 -15 30 -15 23 7 -6 19 -4 21 11 15
36 -14 74 -18 74 -9 0 5 27 10 61 10 33 0 64 4 67 10 4 5 16 13 27 17 16 6 15
2 -8 -21 -35 -38 -34 -52 7 -92 30 -29 39 -33 67 -27 l33 6 -22 -23 c-16 -16
-21 -33 -19 -64 2 -29 -1 -39 -10 -36 -7 3 -13 1 -13 -3 0 -5 -24 -9 -53 -10
-52 0 -161 -45 -197 -80 -13 -13 -9 -14 36 -8 50 6 51 5 58 -21 14 -56 -3 -70
-117 -99 -73 -19 -81 -24 -66 -42 9 -11 8 -14 -2 -14 -8 -1 -3 -7 11 -15 18
-10 41 -13 83 -8 39 4 57 2 57 -6 0 -7 19 -11 49 -11 31 0 53 -5 61 -15 14
-17 72 -20 102 -4 26 14 30 9 12 -16 -13 -18 -24 -19 -109 -17 -77 3 -96 1
-101 -11 -3 -8 -15 -18 -27 -21 -12 -3 -26 -15 -32 -28 -5 -13 -25 -30 -42
-38 -18 -8 -33 -20 -33 -25 0 -6 -27 -22 -61 -37 -63 -28 -73 -48 -19 -40 16
2 37 -2 46 -9 13 -10 19 -8 39 13 13 14 44 31 70 37 41 10 55 9 95 -5 53 -19
80 -14 80 14 0 42 28 48 210 42 30 -1 70 4 88 11 27 11 34 11 41 1 5 -8 23
-12 47 -10 32 2 38 7 36 22 -2 12 1 16 9 10 24 -15 222 -13 274 3 89 27 145
55 145 74 0 21 -31 33 -60 24 -11 -4 -29 0 -42 9 -19 13 -20 16 -5 16 10 0 20
6 23 14 3 8 19 19 35 25 16 5 29 14 29 19 0 5 9 12 20 15 29 7 64 90 50 117
-27 50 -157 77 -216 45 -19 -10 -40 -15 -51 -11 -16 7 -15 9 10 22 39 21 32
52 -18 82 -22 13 -30 20 -17 17 29 -8 28 3 -5 37 -21 22 -24 30 -14 41 9 12 5
17 -19 27 -17 7 -35 21 -41 31 -5 11 -14 19 -19 19 -5 0 -33 9 -62 20 -55 20
-61 28 -105 140 -7 17 -37 39 -97 69 l-86 45 -49 -16 c-32 -10 -62 -13 -83 -9
-31 7 -30 8 23 14 30 4 70 12 88 18 l32 11 -22 21 -22 20 30 11 c32 12 153
139 153 161 0 7 -6 17 -13 23 -17 14 -302 17 -344 4 -20 -6 -33 -7 -33 -1 0 5
6 9 14 9 7 0 19 7 26 15 10 12 9 15 -5 15 -33 0 2 26 65 49 60 22 87 49 76 77
-6 15 -42 16 -116 4z m-327 -227 c-7 -2 -19 -2 -25 0 -7 3 -2 5 12 5 14 0 19
-2 13 -5z m464 -149 c-3 -3 -12 -4 -19 -1 -8 3 -5 6 6 6 11 1 17 -2 13 -5z
m-313 -79 c4 -10 -1 -15 -16 -15 -17 0 -18 2 -8 15 7 8 14 15 15 15 2 0 5 -7
9 -15z"/>
<path d="M8400 5350 c0 -5 7 -10 16 -10 8 0 12 5 9 10 -3 6 -10 10 -16 10 -5
0 -9 -4 -9 -10z"/>
<path d="M3998 5313 c-21 -8 -38 -21 -38 -27 0 -7 -10 -12 -22 -12 -17 1 -24
-5 -26 -21 -2 -14 2 -23 10 -23 10 0 9 -3 -2 -10 -12 -8 -13 -11 -1 -19 23
-15 88 10 76 29 -6 9 50 40 72 40 7 0 13 5 13 10 0 6 -4 10 -9 10 -5 0 -7 9
-4 20 7 25 -16 26 -69 3z"/>
<path d="M8326 5275 c-60 -17 -106 -58 -106 -96 0 -15 5 -31 10 -34 8 -5 8
-11 0 -20 -20 -25 8 -26 37 -1 15 13 38 26 51 30 15 5 22 15 22 32 0 31 17 64
33 64 7 0 23 9 37 20 l25 20 -30 -1 c-16 0 -52 -7 -79 -14z"/>
<path d="M3863 5193 c-18 -2 -33 -7 -33 -11 0 -14 43 -44 49 -35 3 5 14 13 24
16 10 4 17 12 15 19 -5 14 -13 16 -55 11z"/>
<path d="M7999 5138 c-68 -79 -81 -102 -74 -131 9 -33 30 -25 44 15 6 17 29
57 52 90 53 78 38 96 -22 26z"/>
<path d="M7015 5171 c-21 -4 -26 -9 -17 -15 16 -10 62 1 62 14 0 11 0 11 -45
1z"/>
<path d="M3855 5120 c-7 -11 2 -30 13 -30 4 0 8 9 9 20 2 21 -11 27 -22 10z"/>
<path d="M3994 5082 c8 -13 85 -36 94 -28 3 3 -2 6 -12 6 -9 0 -14 5 -11 10 3
6 -2 10 -12 10 -10 0 -29 3 -42 7 -17 4 -22 3 -17 -5z"/>
<path d="M3830 5070 c0 -5 9 -10 20 -10 11 0 20 5 20 10 0 6 -9 10 -20 10 -11
0 -20 -4 -20 -10z"/>
<path d="M3968 5002 c-21 -10 -38 -20 -38 -24 0 -11 18 -10 25 2 3 6 14 10 24
10 9 0 26 7 37 15 26 20 1 18 -48 -3z"/>
<path d="M6940 4923 c0 -26 0 -26 20 -8 16 14 17 20 8 27 -22 13 -28 9 -28
-19z"/>
<path d="M4060 4915 c-8 -9 -8 -15 -2 -15 12 0 26 19 19 26 -2 2 -10 -2 -17
-11z"/>
<path d="M6863 4882 c-12 -2 -26 -9 -32 -16 -12 -14 -5 -46 10 -46 4 0 17 -9
27 -20 13 -14 34 -22 63 -23 37 -2 45 2 58 24 13 24 13 29 -9 59 -13 19 -25
29 -27 23 -3 -7 -16 -8 -36 -4 -18 4 -42 5 -54 3z"/>
<path d="M4209 4839 c-9 -17 -8 -23 2 -30 39 -25 65 3 33 35 -20 20 -21 20
-35 -5z"/>
<path d="M7602 4824 c2 -9 12 -23 24 -30 17 -12 23 -12 39 0 17 12 16 14 -15
29 -42 21 -52 21 -48 1z"/>
<path d="M6566 4773 c-16 -18 -27 -35 -25 -37 2 -2 19 1 37 6 38 10 51 33 31
52 -12 11 -19 8 -43 -21z"/>
<path d="M7000 4797 c0 -7 -9 -18 -20 -25 -20 -12 -28 -42 -12 -42 13 0 39 32
46 58 5 13 3 22 -3 22 -6 0 -11 -6 -11 -13z"/>
<path d="M3840 4768 c-17 -18 -20 -19 -20 -5 0 21 1 21 -84 -5 -86 -27 -84
-25 -61 -42 17 -12 15 -14 -19 -20 -48 -9 -42 -29 10 -36 34 -5 36 -7 17 -13
-13 -5 -29 -15 -37 -22 -15 -15 -57 -17 -148 -9 -49 5 -58 3 -67 -14 -7 -14
-6 -25 6 -42 15 -21 15 -24 0 -35 -9 -7 -14 -14 -11 -17 3 -3 -7 -8 -21 -12
-47 -12 -23 -45 28 -37 4 0 7 -4 7 -10 0 -6 9 -8 20 -4 14 4 18 2 15 -7 -4
-10 9 -13 57 -11 48 1 55 0 32 -6 -41 -10 -54 -19 -54 -36 0 -8 -19 -26 -42
-40 l-43 -26 55 5 c50 5 52 4 20 -5 -19 -6 -42 -19 -50 -29 -9 -10 -35 -21
-62 -24 -48 -7 -61 -19 -34 -29 8 -3 25 -3 38 -1 15 3 11 0 -10 -10 -48 -22
-36 -41 24 -40 l49 1 -32 -14 c-45 -18 -41 -25 10 -16 38 6 41 5 29 -10 -22
-27 152 -14 226 17 31 13 74 29 94 35 20 7 42 19 48 27 9 10 37 14 111 14 95
0 130 11 98 31 -11 6 -8 14 13 36 40 42 54 87 35 116 -10 16 -11 28 -4 44 7
17 6 26 -7 38 -9 9 -21 25 -26 35 -8 15 -6 17 9 13 10 -2 31 6 48 21 17 14 38
26 47 26 10 0 16 9 16 23 0 17 2 19 10 7 5 -8 12 -11 16 -8 9 9 -4 58 -15 58
-11 0 -86 73 -98 95 -8 13 -17 14 -64 5 -30 -6 -67 -18 -82 -26 -16 -9 -31
-14 -34 -11 -2 3 6 11 19 18 l23 13 -25 7 c-43 12 -59 10 -80 -13z m-245 -438
c-3 -5 -16 -10 -28 -9 -20 1 -20 2 3 9 14 4 26 8 28 9 2 1 0 -3 -3 -9z"/>
<path d="M7030 4765 c-12 -15 -12 -19 4 -31 24 -17 100 -29 123 -19 10 5 23 7
29 6 6 0 17 6 25 15 11 14 10 18 -6 30 -35 26 -59 14 -32 -16 10 -11 8 -11 -7
0 -10 8 -33 15 -50 16 -17 1 -40 5 -52 8 -14 5 -25 2 -34 -9z"/>
<path d="M6895 4760 c3 -5 14 -10 23 -10 15 0 15 2 2 10 -20 13 -33 13 -25 0z"/>
<path d="M6598 4688 c9 -9 15 -9 24 0 9 9 7 12 -12 12 -19 0 -21 -3 -12 -12z"/>
<path d="M6610 4609 c0 -5 5 -7 10 -4 6 3 10 8 10 11 0 2 -4 4 -10 4 -5 0 -10
-5 -10 -11z"/>
<path d="M3390 4585 c0 -8 5 -15 10 -15 6 0 10 7 10 15 0 8 -4 15 -10 15 -5 0
-10 -7 -10 -15z"/>
<path d="M6565 4590 c3 -5 8 -10 11 -10 2 0 4 5 4 10 0 6 -5 10 -11 10 -5 0
-7 -4 -4 -10z"/>
<path d="M3375 4552 c6 -5 21 -13 34 -17 17 -5 22 -4 19 6 -3 8 -18 15 -34 17
-19 2 -25 0 -19 -6z"/>
<path d="M6065 4523 c-60 -13 -142 -73 -100 -73 8 0 15 6 15 13 0 15 41 37 69
37 9 0 26 7 37 15 19 15 15 16 -21 8z"/>
<path d="M4683 3843 c-20 -8 -15 -23 7 -23 11 0 20 7 20 15 0 15 -6 17 -27 8z"/>
<path d="M4740 3790 c0 -5 12 -10 26 -10 14 0 23 4 19 10 -3 6 -15 10 -26 10
-10 0 -19 -4 -19 -10z"/>
<path d="M4260 3660 c0 -5 5 -10 10 -10 6 0 10 5 10 10 0 6 -4 10 -10 10 -5 0
-10 -4 -10 -10z"/>
<path d="M4575 3470 c3 -5 16 -10 28 -9 21 0 21 1 2 9 -28 12 -37 12 -30 0z"/>
<path d="M4870 3280 c20 -13 53 -13 45 0 -3 6 -18 10 -33 10 -21 0 -24 -2 -12
-10z"/>
<path d="M7583 3023 c-9 -3 -11 -14 -7 -31 9 -34 22 -52 41 -52 12 0 14 7 9
32 -7 37 -25 58 -43 51z"/>
<path d="M7630 3006 c0 -16 60 -70 68 -61 3 3 -4 15 -16 28 -12 13 -22 29 -22
35 0 7 -7 12 -15 12 -8 0 -15 -6 -15 -14z"/>
<path d="M7680 2911 c0 -5 7 -11 15 -15 8 -3 15 -1 15 3 0 5 -7 11 -15 15 -8
3 -15 1 -15 -3z"/>
<path d="M7721 2907 c2 -1 13 -9 24 -17 19 -14 19 -14 6 3 -7 9 -18 17 -24 17
-6 0 -8 -1 -6 -3z"/>
<path d="M7720 2880 c0 -5 5 -10 11 -10 5 0 7 5 4 10 -3 6 -8 10 -11 10 -2 0
-4 -4 -4 -10z"/>
<path d="M7750 2862 c0 -5 7 -13 16 -16 10 -4 14 -1 12 6 -5 15 -28 23 -28 10z"/>
<path d="M7918 2793 c7 -3 16 -2 19 1 4 3 -2 6 -13 5 -11 0 -14 -3 -6 -6z"/>
<path d="M7950 2791 c0 -11 25 -21 55 -21 29 0 41 16 19 24 -24 9 -74 7 -74
-3z"/>
<path d="M7934 2759 c-7 -11 25 -19 79 -19 31 0 47 4 42 9 -12 11 -115 19
-121 10z"/>
<path d="M7897 2733 c-13 -13 -7 -21 13 -16 11 3 20 9 20 14 0 10 -24 12 -33
2z"/>
<path d="M6700 2710 c0 -15 -7 -20 -29 -20 -41 0 -95 -40 -98 -73 -1 -14 3
-29 8 -33 6 -4 6 -11 -2 -20 -9 -11 -8 -15 5 -20 9 -3 13 -10 10 -15 -3 -5 1
-12 10 -15 8 -3 13 -11 10 -18 -5 -13 36 -36 64 -36 15 0 42 40 42 63 0 5 7
24 16 43 13 28 14 42 6 76 -6 23 -8 46 -6 50 6 10 -14 38 -27 38 -5 0 -9 -9
-9 -20z"/>
<path d="M7990 2721 c0 -13 46 -22 76 -15 19 5 22 9 12 15 -17 11 -88 11 -88
0z"/>
<path d="M6873 2713 c-22 -8 -14 -21 18 -28 36 -8 47 -1 29 20 -13 15 -25 17
-47 8z"/>
<path d="M8120 2690 c20 -13 73 -13 65 0 -3 6 -23 10 -43 10 -28 0 -33 -3 -22
-10z"/>
<path d="M8028 2683 c7 -3 16 -2 19 1 4 3 -2 6 -13 5 -11 0 -14 -3 -6 -6z"/>
<path d="M6850 2670 c0 -5 5 -10 10 -10 6 0 10 5 10 10 0 6 -4 10 -10 10 -5 0
-10 -4 -10 -10z"/>
<path d="M6890 2630 c0 -5 5 -10 11 -10 5 0 7 5 4 10 -3 6 -8 10 -11 10 -2 0
-4 -4 -4 -10z"/>
<path d="M6980 2630 c0 -5 7 -10 16 -10 8 0 12 5 9 10 -3 6 -10 10 -16 10 -5
0 -9 -4 -9 -10z"/>
<path d="M6630 2394 c-41 -26 -64 -34 -89 -32 -30 3 -35 0 -42 -24 -6 -23 -4
-28 10 -28 20 0 42 -51 34 -80 -3 -11 0 -27 7 -34 8 -11 8 -20 1 -35 -6 -11
-11 -31 -11 -45 0 -14 -8 -29 -17 -35 -17 -9 -16 -11 1 -30 10 -11 23 -18 28
-15 5 3 15 0 23 -6 21 -18 64 -4 77 25 9 20 14 22 35 14 51 -19 59 -13 73 51
7 33 10 78 7 99 -3 28 -1 44 9 52 19 15 18 39 -3 69 -10 14 -19 32 -20 40 -2
17 -40 50 -57 50 -6 0 -36 -16 -66 -36z"/>
<path d="M7492 2361 c2 -7 7 -12 11 -12 12 1 9 15 -3 20 -7 2 -11 -2 -8 -8z"/>
<path d="M9301 2356 c-10 -12 -8 -17 7 -25 25 -13 47 6 31 26 -15 17 -24 16
-38 -1z"/>
<path d="M9620 2310 c-36 -14 -46 -23 -48 -44 -2 -17 1 -26 10 -26 17 1 101
77 91 83 -4 2 -28 -4 -53 -13z"/>
<path d="M9450 2310 c0 -5 11 -10 25 -10 14 0 25 5 25 10 0 6 -11 10 -25 10
-14 0 -25 -4 -25 -10z"/>
<path d="M9495 2259 c-11 -17 1 -21 34 -14 17 4 29 11 25 16 -7 12 -51 11 -59
-2z"/>
<path d="M5764 2229 c-10 -16 6 -26 54 -34 44 -7 57 6 30 33 -15 15 -74 16
-84 1z"/>
<path d="M9385 2230 c-9 -15 14 -40 36 -40 16 0 39 26 39 44 0 11 -69 6 -75
-4z"/>
<path d="M5595 2205 c-61 -29 -83 -59 -45 -62 11 -1 32 -11 46 -22 35 -28 47
-27 89 10 43 38 44 47 5 60 -16 6 -30 15 -30 20 0 13 -30 10 -65 -6z"/>
<path d="M8475 2201 c-8 -14 20 -61 36 -61 13 0 2 40 -16 58 -9 10 -15 11 -20
3z"/>
<path d="M9375 2150 c3 -5 8 -10 11 -10 2 0 4 5 4 10 0 6 -5 10 -11 10 -5 0
-7 -4 -4 -10z"/>
<path d="M8535 2130 c3 -5 8 -10 11 -10 2 0 4 5 4 10 0 6 -5 10 -11 10 -5 0
-7 -4 -4 -10z"/>
<path d="M9532 2114 c-28 -19 -20 -34 19 -34 16 0 29 -4 29 -9 0 -13 51 -24
62 -13 7 7 2 21 -13 41 -26 35 -61 41 -97 15z"/>
<path d="M9190 2105 c-8 -9 -8 -15 -2 -15 12 0 26 19 19 26 -2 2 -10 -2 -17
-11z"/>
<path d="M9110 2090 c0 -5 5 -10 10 -10 6 0 10 5 10 10 0 6 -4 10 -10 10 -5 0
-10 -4 -10 -10z"/>
<path d="M9140 2092 c0 -5 7 -13 16 -16 10 -4 14 -1 12 6 -5 15 -28 23 -28 10z"/>
<path d="M5348 2069 c-22 -12 -23 -35 -3 -42 19 -8 60 26 51 41 -9 15 -25 15
-48 1z"/>
<path d="M397 2040 c-34 -27 -37 -54 -4 -45 35 11 51 30 40 49 -8 15 -12 15
-36 -4z"/>
<path d="M9287 2053 c-9 -9 12 -33 29 -33 17 0 18 12 2 28 -14 14 -22 15 -31
5z"/>
<path d="M8627 2023 c-14 -13 -6 -33 13 -33 13 0 20 7 20 20 0 19 -20 27 -33
13z"/>
<path d="M162 2004 c4 -24 32 -39 54 -30 18 7 18 9 -5 27 -29 23 -54 25 -49 3z"/>
<path d="M9460 1990 c0 -5 5 -10 10 -10 6 0 10 5 10 10 0 6 -4 10 -10 10 -5 0
-10 -4 -10 -10z"/>
<path d="M9524 1960 c1 -34 4 -40 20 -38 25 4 44 57 25 69 -32 20 -46 10 -45
-31z"/>
<path d="M7665 1970 c10 -11 22 -20 27 -20 5 0 4 9 -2 20 -6 11 -18 20 -27 20
-14 0 -14 -2 2 -20z"/>
<path d="M8640 1970 c0 -6 -4 -8 -10 -5 -5 3 -10 2 -10 -4 0 -5 -10 -13 -22
-17 l-22 -7 23 -18 c13 -11 37 -19 53 -19 30 0 30 0 14 25 -9 14 -14 30 -11
35 3 5 1 11 -5 15 -5 3 -10 1 -10 -5z"/>
<path d="M7750 1938 c-14 -6 -43 -12 -65 -14 -22 -2 -82 -8 -134 -14 -79 -9
-98 -8 -117 5 -27 18 -74 20 -74 4 0 -8 -12 -10 -36 -6 -27 5 -40 1 -55 -14
-36 -36 -15 -77 44 -84 21 -3 68 -21 106 -40 37 -19 78 -35 92 -35 22 0 39 -9
100 -52 13 -9 42 -18 64 -20 35 -3 40 0 43 19 2 12 10 27 17 33 12 10 11 16
-6 39 -19 26 -19 31 -6 62 8 19 27 49 41 68 25 34 34 62 19 60 -5 0 -19 -5
-33 -11z"/>
<path d="M660 1896 c0 -31 56 -48 90 -26 19 12 14 16 -42 28 -36 7 -48 7 -48
-2z"/>
<path d="M7180 1890 c0 -5 5 -10 10 -10 6 0 10 5 10 10 0 6 -4 10 -10 10 -5 0
-10 -4 -10 -10z"/>
<path d="M9330 1881 c0 -16 65 -61 86 -60 14 0 13 3 -7 10 -14 5 -31 21 -37
34 -11 24 -42 35 -42 16z"/>
<path d="M8640 1866 c0 -21 23 -33 50 -27 l24 7 -24 17 c-30 21 -50 22 -50 3z"/>
<path d="M9650 1860 c-13 -9 -13 -11 0 -20 19 -12 50 -13 69 -1 11 7 10 11 -7
20 -25 13 -42 14 -62 1z"/>
<path d="M9574 1840 c-28 -11 -40 -30 -19 -30 22 0 55 18 55 30 0 12 -8 12
-36 0z"/>
<path d="M9257 1833 c-12 -12 -7 -22 8 -17 8 4 15 10 15 15 0 11 -14 12 -23 2z"/>
<path d="M9275 1799 c-4 -6 -5 -13 -2 -16 7 -7 27 6 27 18 0 12 -17 12 -25 -2z"/>
<path d="M9352 1799 c2 -6 8 -10 13 -10 5 0 11 4 13 10 2 6 -4 11 -13 11 -9 0
-15 -5 -13 -11z"/>
<path d="M9425 1800 c3 -5 13 -10 21 -10 8 0 14 5 14 10 0 6 -9 10 -21 10 -11
0 -17 -4 -14 -10z"/>
<path d="M9275 1750 c-3 -5 1 -10 9 -10 9 0 16 5 16 10 0 6 -4 10 -9 10 -6 0
-13 -4 -16 -10z"/>
<path d="M9426 1751 c-38 -8 -50 -36 -13 -29 20 4 28 0 33 -15 6 -18 7 -17 24
9 28 42 19 49 -44 35z"/>
<path d="M9312 1729 c2 -7 10 -15 17 -17 8 -3 12 1 9 9 -2 7 -10 15 -17 17 -8
3 -12 -1 -9 -9z"/>
<path d="M7170 1690 c0 -5 7 -10 15 -10 8 0 15 5 15 10 0 6 -7 10 -15 10 -8 0
-15 -4 -15 -10z"/>
<path d="M9283 1690 c-19 -8 -33 -30 -19 -30 18 0 65 24 60 31 -6 11 -12 11
-41 -1z"/>
<path d="M9500 1690 c0 -13 11 -13 30 0 12 8 11 10 -7 10 -13 0 -23 -4 -23
-10z"/>
<path d="M9422 1681 c2 -7 7 -12 11 -12 12 1 9 15 -3 20 -7 2 -11 -2 -8 -8z"/>
<path d="M9390 1670 c0 -5 5 -10 10 -10 6 0 10 5 10 10 0 6 -4 10 -10 10 -5 0
-10 -4 -10 -10z"/>
<path d="M9355 1660 c3 -5 8 -10 11 -10 2 0 4 5 4 10 0 6 -5 10 -11 10 -5 0
-7 -4 -4 -10z"/>
<path d="M9590 1650 c0 -5 6 -10 14 -10 8 0 18 5 21 10 3 6 -3 10 -14 10 -12
0 -21 -4 -21 -10z"/>
<path d="M9440 1626 c0 -9 5 -16 10 -16 6 0 10 4 10 9 0 6 -4 13 -10 16 -5 3
-10 -1 -10 -9z"/>
<path d="M9770 1630 c0 -5 5 -10 11 -10 5 0 7 5 4 10 -3 6 -8 10 -11 10 -2 0
-4 -4 -4 -10z"/>
<path d="M9862 1613 c-29 -25 -38 -61 -17 -69 19 -8 70 37 78 67 7 25 -33 26
-61 2z"/>
<path d="M9020 1606 c0 -7 7 -19 15 -26 12 -10 16 -9 21 3 3 9 3 21 -1 27 -9
15 -35 12 -35 -4z"/>
<path d="M7550 1570 c0 -5 5 -10 10 -10 6 0 10 5 10 10 0 6 -4 10 -10 10 -5 0
-10 -4 -10 -10z"/>
<path d="M7577 1546 c-7 -18 1 -26 25 -26 11 0 18 7 18 20 0 23 -35 28 -43 6z"/>
<path d="M9085 1530 c3 -5 8 -10 11 -10 2 0 4 5 4 10 0 6 -5 10 -11 10 -5 0
-7 -4 -4 -10z"/>
<path d="M9725 1511 c-3 -10 -2 -29 3 -41 9 -23 9 -23 20 10 15 43 15 50 -2
50 -8 0 -17 -8 -21 -19z"/>
<path d="M9147 1490 c-11 -10 -17 -29 -15 -42 3 -21 9 -23 78 -29 88 -7 120
-16 120 -35 0 -10 24 -12 123 -7 105 4 124 8 139 25 25 28 15 37 -29 27 -50
-11 -53 -11 -50 3 2 15 -74 25 -191 27 -55 1 -74 5 -78 16 -4 9 -19 15 -35 15
-16 0 -29 5 -29 10 0 15 -13 11 -33 -10z"/>
<path d="M10935 1482 c-45 -19 -78 -26 -132 -26 -52 0 -73 -4 -73 -13 0 -7 -7
-13 -15 -13 -8 0 -33 -6 -55 -12 -44 -14 -51 -35 -22 -61 24 -21 113 -51 121
-40 3 5 26 17 51 25 49 17 113 41 119 45 2 1 -1 9 -8 16 -18 23 -2 45 50 69
27 13 49 26 49 30 0 13 -21 8 -85 -20z"/>
<path d="M9215 1360 c3 -5 10 -10 16 -10 5 0 9 5 9 10 0 6 -7 10 -16 10 -8 0
-12 -4 -9 -10z"/>
<path d="M7035 1349 c-4 -6 -5 -13 -2 -16 7 -7 27 6 27 18 0 12 -17 12 -25 -2z"/>
<path d="M7005 1330 c-3 -5 -1 -10 4 -10 6 0 11 5 11 10 0 6 -2 10 -4 10 -3 0
-8 -4 -11 -10z"/>
<path d="M2291 1104 c0 -11 3 -14 6 -6 3 7 2 16 -1 19 -3 4 -6 -2 -5 -13z"/>
<path d="M2175 1040 c-4 -7 -3 -16 3 -22 14 -14 47 -6 47 12 0 18 -40 26 -50
10z"/>
<path d="M2769 412 c-14 -12 -20 -25 -16 -36 6 -15 9 -15 36 -2 24 13 41 34
41 52 0 11 -41 2 -61 -14z"/>
<path d="M2045 360 c-7 -12 20 -60 34 -60 11 0 21 25 21 51 0 13 -7 19 -24 19
-14 0 -28 -5 -31 -10z"/>
<path d="M2733 353 c-7 -3 -20 -19 -28 -37 -9 -19 -25 -43 -37 -55 -26 -29
-18 -36 26 -21 42 14 66 43 66 82 0 29 -8 38 -27 31z"/>
<path d="M2305 309 c-16 -10 -40 -19 -53 -19 -13 0 -22 -3 -20 -7 24 -51 33
-63 44 -63 16 0 96 95 87 104 -10 10 -26 6 -58 -15z"/>
<path d="M2165 250 c-4 -7 -3 -16 2 -21 12 -12 45 0 40 15 -5 15 -34 19 -42 6z"/>
<path d="M2430 246 c-20 -25 -8 -61 21 -64 36 -4 55 21 41 53 -13 28 -43 33
-62 11z"/>
<path d="M2030 190 c-12 -7 -12 -12 -2 -22 9 -9 17 -10 30 -2 9 6 16 15 15 20
-3 13 -26 15 -43 4z"/>
</g>
</svg>
