<?xml version="1.0" standalone="no"?>
<!DOCTYPE svg PUBLIC "-//W3C//DTD SVG 20010904//EN"
 "http://www.w3.org/TR/2001/REC-SVG-20010904/DTD/svg10.dtd">
<svg version="1.0" xmlns="http://www.w3.org/2000/svg"
 width="1280.000000pt" height="565.000000pt" viewBox="0 0 1280.000000 565.000000"
 preserveAspectRatio="xMidYMid meet">
<metadata>
Created by potrace 1.15, written by Peter Selinger 2001-2017
</metadata>
<g transform="translate(0.000000,565.000000) scale(0.100000,-0.100000)"
fill="#2d4573" stroke="none">
<path d="M5020 5643 c-89 -4 -132 -12 -125 -23 4 -6 -4 -6 -20 0 -15 6 -34 6
-43 2 -24 -11 -223 -6 -366 9 -102 11 -148 10 -340 -5 -121 -10 -230 -20 -240
-23 -17 -5 -18 -6 -3 -15 10 -5 17 -14 17 -20 0 -6 -12 -3 -26 7 -31 20 -87
17 -147 -8 -38 -16 -38 -17 -21 -42 14 -22 23 -25 78 -25 58 0 60 -1 34 -14
-39 -21 -116 -35 -157 -29 -81 11 -96 9 -96 -12 0 -14 -8 -21 -26 -23 -20 -2
-27 1 -25 14 1 22 -36 26 -86 9 -21 -7 -38 -9 -38 -4 0 12 -37 12 -44 0 -12
-18 27 -35 86 -37 34 -2 64 -8 68 -14 13 -22 64 -7 78 23 13 27 35 36 46 18 3
-5 -1 -14 -10 -21 -12 -11 -12 -15 -2 -21 18 -12 261 -11 292 1 61 23 6 44
-84 32 -65 -8 -113 -4 -105 9 8 12 201 12 224 -1 14 -7 29 -4 57 10 22 11 35
20 29 20 -21 2 41 29 66 30 14 0 47 11 73 25 26 14 56 25 67 25 11 0 56 9 100
21 44 11 85 18 92 16 7 -3 2 -6 -10 -6 -26 -1 -32 -21 -6 -21 9 0 13 -3 10 -6
-4 -4 -52 -13 -107 -20 -109 -14 -135 -23 -104 -35 17 -7 16 -8 -6 -9 l-25 -1
28 -24 c26 -23 36 -25 131 -25 146 0 159 -14 121 -137 -6 -17 -2 -22 17 -25
22 -3 22 -4 -6 -18 -35 -18 -44 -38 -22 -46 22 -8 68 4 61 16 -3 6 -1 10 5 10
6 0 10 -10 8 -22 -2 -17 -11 -24 -33 -26 -35 -4 -86 -48 -78 -68 3 -8 0 -14
-7 -14 -8 0 -9 -6 -5 -17 4 -10 9 -37 11 -60 1 -23 13 -64 25 -92 18 -42 26
-51 47 -51 13 0 40 -9 58 -21 l34 -21 27 30 c16 16 42 44 58 63 17 19 40 43
53 54 12 11 32 33 45 48 17 22 32 29 62 31 22 1 53 8 68 14 16 7 31 12 35 12
4 0 31 16 60 35 29 20 56 33 61 30 13 -7 144 21 216 48 l60 21 -38 9 c-21 5
-37 15 -37 23 0 18 14 18 30 -1 7 -8 26 -15 42 -15 26 0 29 3 27 28 -4 37 15
68 46 76 14 4 23 11 20 16 -3 6 1 10 10 10 25 0 82 32 67 38 -8 2 -19 -1 -25
-7 -16 -16 -31 -13 -18 3 9 11 10 20 1 35 -8 17 -8 21 4 21 8 0 18 -5 21 -10
5 -8 11 -7 21 1 12 10 11 14 -7 30 -12 11 -26 19 -31 19 -5 0 -6 5 -3 10 3 6
15 10 25 10 10 0 20 4 22 10 2 5 46 23 98 39 77 23 90 30 70 35 -31 8 -172 2
-188 -8 -7 -4 -12 -3 -12 3 0 5 6 13 12 17 38 24 -211 38 -452 27z m-455 -42
c-6 -5 -37 -11 -70 -14 l-60 -6 55 13 c69 17 87 19 75 7z m-615 -35 c0 -2 -7
-7 -16 -10 -8 -3 -12 -2 -9 4 6 10 25 14 25 6z m575 -306 c3 -5 -1 -10 -9 -10
-9 0 -16 5 -16 10 0 6 4 10 9 10 6 0 13 -4 16 -10z"/>
<path d="M7226 5590 c-51 -20 -75 -36 -41 -28 11 3 51 1 89 -3 53 -7 73 -5 88
5 19 14 19 14 -2 21 -12 4 -28 1 -38 -6 -9 -7 -14 -10 -10 -5 7 9 -15 36 -29
36 -4 -1 -30 -9 -57 -20z"/>
<path d="M7106 5582 c-4 -3 -26 -5 -49 -3 -27 1 -39 -1 -32 -8 14 -14 93 -17
106 -4 7 7 6 12 -4 16 -8 3 -18 3 -21 -1z"/>
<path d="M8086 5575 c-36 -28 -10 -36 169 -51 l70 -7 -24 22 c-13 11 -38 21
-55 21 -17 0 -40 7 -50 15 -25 19 -85 19 -110 0z"/>
<path d="M6353 5562 c-18 -2 -33 -6 -33 -10 0 -4 -27 -5 -61 -4 -54 3 -60 2
-57 -14 3 -18 115 -84 141 -84 7 0 25 14 41 30 33 34 39 36 59 15 21 -20 63
-29 84 -16 14 8 15 11 3 11 -8 0 -33 9 -55 20 l-40 19 56 1 c32 0 63 6 75 15
15 11 16 15 4 16 -35 4 -188 5 -217 1z"/>
<path d="M3450 5521 c-24 -20 -24 -20 -4 -21 12 0 42 -3 68 -6 38 -6 46 -4 46
9 0 20 -6 23 -51 32 -27 5 -40 2 -59 -14z"/>
<path d="M3258 5513 c-10 -2 -18 -9 -18 -14 0 -5 -9 -9 -20 -9 -11 0 -20 -4
-20 -10 0 -5 8 -10 18 -10 25 0 112 32 112 42 0 8 -42 9 -72 1z"/>
<path d="M2962 5458 c-82 -20 -94 -28 -50 -33 13 -2 50 -13 82 -25 57 -22 66
-22 163 -12 57 7 114 17 126 24 l22 13 -22 3 c-13 2 -23 9 -23 16 0 17 -45 9
-61 -10 -15 -18 -24 -18 -70 3 -34 15 -36 18 -21 29 15 12 12 13 -23 13 -22
-1 -77 -10 -123 -21z m68 -22 c0 -3 -4 -8 -10 -11 -5 -3 -10 -1 -10 4 0 6 5
11 10 11 6 0 10 -2 10 -4z"/>
<path d="M8420 5467 c0 -18 -48 -32 -98 -28 -18 1 -63 -5 -100 -14 -37 -10
-71 -18 -77 -20 -5 -1 -23 -6 -40 -10 l-30 -8 30 -13 30 -13 -30 -1 c-16 0
-49 -3 -73 -6 l-42 -6 24 -19 c13 -10 31 -19 39 -19 9 0 19 -4 22 -10 8 -13
-1 -13 -59 5 -27 8 -55 15 -62 15 -18 0 -27 -32 -12 -43 9 -6 8 -7 -5 -3 -10
3 -21 6 -23 6 -2 0 -4 7 -4 15 0 16 -47 51 -56 42 -3 -3 4 -11 16 -17 21 -11
21 -12 3 -26 -17 -14 -17 -15 5 -30 12 -9 22 -24 22 -33 0 -22 19 -41 43 -41
10 0 16 -4 12 -9 -3 -5 -1 -12 5 -16 16 -10 12 -33 -11 -54 -32 -30 -51 -17
-31 20 16 29 16 31 -4 48 -12 9 -29 32 -38 50 -10 17 -24 35 -32 38 -7 3 -14
15 -14 27 0 16 -11 27 -42 41 -40 17 -42 17 -55 0 -7 -11 -13 -26 -13 -36 0
-9 -7 -20 -16 -23 -16 -6 -16 -8 0 -24 9 -10 16 -23 16 -28 0 -6 16 -16 35
-23 19 -7 35 -17 35 -22 0 -11 -7 -11 -29 1 -20 10 -39 15 -121 31 -30 5 -75
15 -99 20 -55 12 -64 5 -18 -14 41 -17 53 -33 32 -41 -8 -3 -18 2 -23 11 -7
11 -14 13 -28 6 -34 -18 -107 -25 -115 -12 -10 17 -139 -25 -160 -53 -14 -18
-19 -19 -39 -8 -22 12 -22 13 -5 23 17 9 16 11 -6 23 -13 7 -37 13 -54 13 -16
0 -24 -3 -17 -6 6 -2 12 -13 12 -23 0 -9 7 -23 15 -30 21 -17 3 -36 -21 -22
-27 15 -87 -24 -78 -51 5 -15 3 -19 -9 -14 -36 14 -87 19 -87 9 0 -6 9 -14 20
-17 11 -3 20 -10 20 -15 0 -10 -58 7 -77 23 -7 5 -13 18 -13 29 0 10 -10 23
-22 28 -16 7 -7 8 32 3 85 -12 129 -9 147 9 13 14 14 20 4 32 -20 24 -230 86
-294 86 -24 0 -28 3 -17 10 23 14 5 23 -52 26 -29 1 -61 5 -70 9 -9 4 -26 1
-38 -5 -12 -6 -24 -10 -26 -7 -3 3 -25 -1 -50 -9 -24 -7 -50 -11 -58 -8 -7 3
-19 -2 -26 -11 -7 -8 -21 -15 -31 -15 -11 0 -19 -5 -19 -11 0 -6 -8 -8 -19 -4
-11 3 -25 -1 -34 -10 -9 -8 -20 -15 -26 -15 -5 0 -13 -5 -16 -10 -4 -7 2 -9
19 -4 37 9 33 -10 -9 -42 -19 -14 -35 -31 -35 -37 0 -15 -80 -81 -100 -82 -10
-1 -25 -8 -33 -17 -8 -8 -29 -21 -46 -28 -33 -13 -49 -47 -36 -77 4 -10 8 -28
9 -40 2 -30 29 -55 58 -55 14 0 43 11 66 26 l41 26 7 -23 c3 -12 17 -36 30
-54 13 -17 24 -34 24 -37 0 -5 -66 -36 -77 -36 -3 0 -1 6 5 13 5 6 7 26 5 44
l-5 31 -34 -20 c-40 -23 -47 -42 -34 -88 14 -49 15 -47 -37 -55 -57 -8 -83
-21 -83 -39 0 -17 -51 -62 -80 -71 -11 -3 -20 -12 -20 -20 0 -20 -60 -47 -91
-40 -24 5 -27 4 -22 -14 5 -19 1 -21 -46 -21 -64 0 -70 -23 -11 -46 22 -9 40
-21 40 -27 0 -6 7 -18 16 -28 12 -13 14 -28 9 -56 -11 -68 -11 -68 -125 -57
-136 12 -145 7 -145 -79 0 -37 -6 -71 -13 -80 -9 -10 -11 -31 -6 -66 l7 -51
37 0 c28 0 41 -6 53 -23 13 -20 13 -26 -3 -57 -10 -19 -37 -49 -61 -65 -51
-37 -77 -78 -78 -124 -1 -26 -10 -43 -41 -73 -23 -21 -49 -38 -59 -38 -19 0
-46 -35 -86 -110 -11 -21 -27 -46 -36 -56 -16 -19 -54 -95 -62 -124 -2 -8 3
-20 10 -25 33 -24 17 -195 -21 -233 -13 -13 -13 -18 1 -38 8 -13 12 -32 8 -43
-3 -11 0 -31 7 -43 7 -13 11 -29 10 -35 -2 -7 2 -13 8 -13 5 0 10 5 10 11 0
23 80 -77 90 -113 10 -36 33 -68 49 -68 4 0 36 -25 72 -56 61 -53 66 -55 104
-49 22 4 78 8 125 9 76 2 161 22 195 47 16 11 109 20 121 12 7 -5 21 -24 31
-43 19 -34 22 -35 78 -35 50 0 60 -3 77 -26 18 -24 19 -32 8 -85 -6 -33 -16
-73 -21 -91 -12 -38 -4 -56 51 -123 21 -25 42 -54 48 -65 23 -46 54 -143 58
-180 1 -22 6 -59 10 -82 5 -33 2 -47 -15 -70 -25 -34 -51 -128 -51 -186 0 -28
14 -69 44 -132 33 -66 47 -112 55 -170 15 -104 27 -147 50 -177 11 -13 34 -57
52 -97 27 -60 30 -76 21 -92 -7 -11 -8 -20 -2 -24 6 -3 10 -14 10 -23 0 -31
49 -43 104 -27 27 8 72 15 100 15 92 1 186 63 253 167 18 29 38 53 42 53 15 0
44 87 38 111 -4 16 2 25 25 37 70 39 78 50 78 106 0 29 -5 68 -11 85 -11 32
-10 35 42 88 30 30 68 61 85 69 17 7 45 29 63 49 l32 36 -7 107 c-4 59 -12
110 -17 114 -6 3 -12 35 -14 69 -2 35 -8 68 -13 73 -26 26 11 124 74 198 17
20 45 55 61 77 17 22 57 62 91 89 63 52 125 134 149 199 7 21 23 56 34 78 12
21 21 47 21 57 0 9 4 19 8 22 10 6 3 76 -7 76 -4 0 -11 -4 -17 -10 -5 -5 -50
-18 -99 -29 -50 -10 -97 -21 -106 -25 -10 -4 -27 4 -47 24 -18 16 -27 30 -22
30 22 0 7 29 -44 83 -29 31 -58 57 -64 57 -7 0 -9 7 -5 17 5 12 2 15 -10 10
-12 -4 -19 5 -31 41 -9 25 -28 59 -43 74 -19 20 -28 43 -34 84 -6 41 -15 64
-35 85 -15 16 -28 37 -29 47 0 10 -11 34 -22 53 -12 19 -33 60 -47 91 -14 31
-31 60 -36 63 -6 3 -10 11 -10 17 0 6 10 -2 21 -16 15 -19 28 -26 41 -23 21 6
69 -51 95 -113 8 -19 21 -39 29 -43 19 -11 40 -54 48 -98 4 -21 20 -48 41 -69
19 -19 35 -39 35 -44 0 -6 16 -31 35 -55 36 -45 47 -73 20 -51 -29 24 -34 4
-6 -27 16 -18 35 -55 42 -83 18 -71 30 -78 85 -52 24 12 49 22 55 22 24 0 195
90 206 109 7 11 32 26 55 33 24 7 58 29 79 50 20 21 42 38 48 38 6 0 11 14 11
30 0 24 4 30 18 28 10 -2 16 2 14 10 -1 8 6 28 17 46 l20 32 -35 32 c-19 18
-41 32 -49 32 -25 0 -55 38 -55 70 0 17 -3 30 -7 30 -3 0 -21 -17 -39 -39 -25
-29 -43 -40 -71 -43 -54 -7 -63 -1 -63 43 0 41 -12 51 -28 23 -6 -11 -11 -13
-16 -5 -4 6 -2 11 3 11 12 0 -12 32 -48 64 -13 12 -30 36 -38 54 -13 31 -12
35 3 47 26 19 53 7 81 -37 28 -42 103 -97 141 -104 13 -3 37 2 53 10 28 14 30
14 44 -15 9 -16 25 -31 38 -34 77 -17 143 -22 218 -18 l86 5 52 -50 c29 -29
64 -53 79 -55 26 -4 26 -4 5 -12 -31 -10 -29 -19 14 -54 33 -27 39 -29 57 -17
12 7 23 24 27 37 5 21 7 18 13 -16 15 -92 40 -184 66 -245 16 -36 46 -105 68
-155 22 -49 43 -100 46 -111 4 -12 15 -29 26 -39 19 -17 21 -16 50 15 16 18
30 38 30 45 0 7 5 15 12 17 9 3 13 38 13 118 l1 114 32 15 c17 9 34 23 39 33
12 24 86 102 122 127 20 15 31 31 31 47 0 13 6 25 13 25 23 3 52 6 79 7 15 1
33 9 42 17 21 21 22 20 46 -31 12 -25 33 -52 46 -61 13 -8 24 -24 24 -35 0
-10 4 -17 9 -14 13 8 31 -41 31 -84 0 -34 3 -40 21 -40 11 0 34 10 51 21 36
26 40 22 64 -61 9 -30 20 -60 25 -66 5 -6 7 -28 5 -48 -3 -20 -1 -36 4 -36 5
0 7 -31 4 -70 -4 -64 -3 -70 18 -81 29 -16 49 -41 43 -56 -2 -6 3 -14 11 -17
8 -3 14 -15 14 -26 0 -46 41 -117 87 -151 26 -19 52 -38 59 -44 7 -5 17 -6 21
-2 4 5 3 11 -2 15 -19 14 -45 83 -45 122 0 31 -7 46 -37 77 -21 22 -46 42 -55
46 -18 7 -48 67 -48 98 0 12 -5 16 -15 13 -18 -7 -19 17 -1 100 12 58 36 89
36 47 0 -12 6 -21 15 -21 22 0 65 -30 65 -44 0 -29 29 -51 73 -55 4 -1 7 -17
7 -37 l0 -35 35 27 c19 14 35 33 35 40 0 8 6 14 14 14 24 0 76 56 76 82 0 59
-31 130 -76 173 -57 54 -94 104 -94 126 0 29 69 89 102 89 18 0 29 -6 30 -15
0 -8 1 -19 2 -25 1 -5 -3 -10 -9 -11 -16 -1 -45 -31 -45 -45 0 -21 39 -38 55
-24 14 12 31 65 27 87 -3 16 37 43 65 43 12 0 28 7 36 15 8 8 17 12 19 9 3 -2
18 2 34 11 16 8 34 15 39 15 15 0 115 111 109 121 -5 9 14 75 27 94 4 6 10 31
14 56 7 46 7 47 -19 42 -15 -3 -26 -1 -26 6 0 6 5 11 10 11 16 0 12 21 -7 37
-10 8 -12 12 -5 8 26 -13 10 8 -58 76 l-70 70 26 34 c15 19 33 35 40 35 8 0
14 6 14 14 0 20 -76 32 -97 15 -13 -12 -18 -10 -31 9 -8 12 -22 22 -31 22 -18
0 -41 18 -41 32 0 4 8 8 18 8 9 0 28 16 42 35 14 19 32 34 40 32 14 -2 16 -10
19 -65 l1 -23 26 20 c29 23 83 28 102 9 7 -7 12 -22 12 -35 0 -24 4 -27 53
-38 18 -3 27 -11 24 -19 -3 -7 3 -23 13 -36 9 -12 16 -30 14 -39 -8 -30 11
-44 49 -37 79 15 73 63 -20 154 l-65 64 21 22 c12 12 21 35 21 50 0 50 16 67
58 60 48 -8 74 20 90 96 24 114 22 140 -15 208 -79 145 28 45 120 -112 25 -42
47 -64 47 -47 0 8 7 10 23 5 15 -5 8 6 -25 38 -47 44 -62 78 -34 78 8 0 18 -4
21 -10 3 -5 10 -10 15 -10 10 0 -216 224 -233 229 -9 3 -9 1 0 -11 7 -8 10
-18 6 -21 -3 -4 0 -13 7 -22 7 -9 10 -18 7 -22 -4 -3 -9 2 -13 11 -7 18 -93
66 -118 66 -8 0 -16 -8 -19 -17 -3 -14 -8 -11 -23 14 -12 20 -27 33 -39 32
-18 0 -18 -1 3 -9 22 -9 31 -30 12 -30 -5 0 -10 5 -10 10 0 6 -8 10 -17 10
-10 0 -24 4 -32 9 -11 7 -11 12 2 32 8 13 23 49 32 79 10 30 23 59 29 63 6 4
46 5 89 1 51 -4 82 -2 91 5 14 12 76 4 76 -10 0 -11 56 -10 90 1 l25 8 -22 7
c-23 7 -27 23 -17 63 8 30 64 30 104 0 l30 -22 21 23 c18 19 19 25 8 32 -7 4
-10 11 -6 15 4 5 19 -4 33 -19 19 -20 23 -31 15 -40 -5 -7 -13 -33 -17 -57 -4
-25 -14 -50 -22 -56 -27 -20 10 -75 122 -180 59 -54 111 -100 116 -102 13 -5
17 31 6 56 -7 17 -6 26 3 31 9 6 10 11 2 15 -16 10 -13 36 4 36 22 0 18 14
-12 40 -25 21 -26 25 -10 28 15 3 12 10 -20 37 -21 19 -45 34 -54 35 -21 0
-34 17 -43 53 -7 28 3 33 57 29 9 -1 17 3 17 9 0 12 62 8 91 -5 12 -5 18 -1
23 18 3 14 22 37 41 52 28 21 42 25 70 21 51 -8 43 6 -25 42 -48 26 -60 36
-55 51 4 12 -1 23 -12 30 -16 11 -16 11 2 4 11 -4 43 -10 70 -13 28 -4 59 -12
71 -18 11 -7 45 -15 75 -18 53 -7 54 -7 30 10 -16 13 -20 20 -11 25 7 4 10 13
6 19 -9 14 -101 41 -140 41 -17 0 -65 11 -106 24 -119 38 -297 74 -402 81 -54
4 -98 5 -98 2 0 -4 12 -13 28 -21 15 -9 20 -15 12 -16 -8 0 -33 9 -54 20 -27
15 -41 18 -50 11 -21 -18 -205 -5 -228 16 -14 13 -48 18 -146 24 -133 8 -156
12 -209 35 -18 8 -47 14 -65 14 -18 -1 -71 3 -117 8 -69 8 -87 7 -99 -4 -7 -8
-9 -14 -3 -14 6 0 11 -4 11 -8 0 -4 -40 -8 -89 -7 -67 0 -87 -3 -84 -12 10
-25 -35 -13 -86 22 -64 45 -81 51 -160 59 -57 7 -63 6 -57 -10 6 -15 1 -16
-51 -9 -32 4 -94 10 -139 14 -45 3 -88 12 -97 19 -19 16 -70 8 -88 -14 -6 -8
-21 -14 -33 -14 -15 0 -10 6 19 21 52 27 72 46 60 58 -21 18 -81 31 -146 31
-38 0 -69 5 -71 10 -2 6 -36 13 -76 17 -61 5 -72 4 -72 -10z m-1807 -404 c9
-8 -58 -70 -85 -79 -18 -5 -19 -11 -13 -57 11 -78 29 -86 140 -65 35 6 71 8
81 4 18 -7 18 -8 -1 -18 -10 -6 -41 -10 -67 -9 -36 1 -52 -3 -67 -18 -13 -13
-21 -16 -25 -8 -5 14 -26 -10 -26 -31 0 -10 5 -10 21 -2 27 15 49 6 49 -20 0
-23 -12 -25 -39 -8 -30 18 -51 3 -51 -36 0 -25 -8 -42 -27 -61 -29 -27 -43
-31 -43 -15 0 15 -29 12 -82 -7 -39 -14 -51 -15 -71 -4 -17 9 -30 9 -51 2 -19
-8 -33 -8 -47 -1 -24 13 -24 16 0 23 14 3 18 1 14 -10 -5 -13 -2 -13 15 -4 12
7 22 18 22 27 0 11 7 13 26 8 17 -4 29 -2 34 6 5 8 23 18 42 24 30 10 33 14
30 48 -3 32 0 39 26 52 43 22 46 42 12 68 -24 17 -28 27 -24 47 6 28 47 71 68
71 7 0 21 9 31 20 10 11 14 20 10 20 -4 0 0 9 10 20 18 19 74 28 88 13z m-403
-58 c-7 -9 -15 -13 -17 -11 -7 7 7 26 19 26 6 0 6 -6 -2 -15z m3098 -352 c5
-16 8 -38 7 -49 -1 -23 -56 -84 -75 -84 -7 0 -5 6 4 15 27 27 48 84 44 115 -6
38 7 39 20 3z m-2181 -330 c-12 -3 -16 -11 -12 -23 7 -22 -8 -33 -48 -34 -35
-1 -53 17 -33 33 18 15 64 29 91 29 17 0 17 -1 2 -5z m494 -30 c12 -33 13 -33
-19 -33 -15 0 -35 -9 -44 -20 -16 -18 -15 -21 10 -48 15 -16 37 -34 49 -40 12
-7 22 -20 22 -30 0 -24 24 -92 33 -92 5 0 8 -5 8 -11 0 -6 7 -17 15 -25 8 -9
16 -26 17 -40 0 -13 1 -29 2 -36 1 -7 -13 -15 -31 -19 -36 -7 -126 29 -136 55
-10 25 4 86 19 86 8 0 -13 28 -46 62 -33 33 -60 68 -60 76 0 9 -7 23 -15 32
-19 21 -10 48 19 61 11 5 35 20 53 33 41 30 90 25 104 -11z m714 -9 c-12 -24
-15 -25 -15 -8 0 11 5 25 12 32 18 18 20 8 3 -24z m-1430 16 c3 -5 18 -10 33
-10 18 0 23 -3 15 -11 -8 -8 -4 -17 11 -34 22 -23 24 -23 66 -9 41 14 45 14
94 -11 104 -52 160 -105 136 -128 -17 -18 -149 -13 -185 7 -37 20 -85 20 -132
1 -79 -33 -164 -5 -147 48 4 12 11 24 15 25 5 2 9 15 9 28 0 13 5 24 10 24 6
0 14 8 17 18 10 27 35 62 44 62 4 0 11 -4 14 -10z m959 -36 c18 -18 21 -54 5
-54 -6 0 -19 10 -29 22 -13 16 -14 25 -6 35 14 16 12 16 30 -3z m-1564 -4 c0
-6 11 -16 25 -22 14 -6 25 -17 25 -24 0 -7 35 -32 78 -56 62 -35 77 -49 78
-68 2 -42 15 -78 30 -84 8 -3 14 -19 14 -36 0 -21 5 -30 16 -30 9 0 18 -8 21
-18 2 -10 18 -23 35 -30 26 -9 29 -9 24 5 -4 9 2 23 15 34 24 21 39 24 39 9 0
-5 6 -10 13 -10 6 1 -4 15 -24 33 -41 37 -76 87 -61 87 6 0 13 -4 17 -10 8
-13 35 -1 29 14 -3 9 6 12 30 11 32 -1 66 -15 37 -15 -8 0 -6 -11 8 -34 16
-26 18 -35 9 -39 -10 -4 -9 -9 4 -20 10 -7 22 -26 27 -40 7 -17 18 -27 30 -27
11 0 32 -5 47 -12 23 -11 28 -10 40 7 14 19 16 19 45 2 36 -20 52 -21 82 -5
12 6 31 12 42 12 18 1 20 -5 19 -54 -2 -72 -21 -141 -46 -162 -22 -20 -63 -24
-73 -8 -9 14 -41 12 -74 -4 -24 -13 -36 -13 -92 1 -73 18 -97 26 -156 56 -40
20 -44 20 -78 4 -30 -14 -35 -21 -35 -52 0 -43 -21 -55 -59 -33 -14 9 -41 19
-59 23 -18 3 -37 16 -43 27 -12 23 -67 48 -104 48 -14 0 -33 8 -43 18 -10 10
-24 16 -30 14 -17 -5 -15 25 3 31 10 5 14 20 12 56 -2 46 -4 51 -29 56 -15 4
-31 4 -35 2 -5 -3 -57 -8 -118 -11 -125 -8 -169 -17 -228 -50 -34 -19 -52 -23
-99 -19 -90 8 -86 47 7 60 60 8 131 69 120 103 -7 23 38 73 93 102 27 15 32
21 26 42 -5 21 -2 26 18 31 13 3 36 1 52 -5 24 -9 35 -6 75 18 33 21 52 27 67
21 23 -8 38 -35 28 -50 -3 -5 0 -9 6 -9 6 0 21 -9 33 -21 12 -11 38 -29 58
-39 58 -30 99 -69 99 -95 0 -27 -17 -35 -70 -35 -21 0 -41 -4 -45 -10 -7 -11
30 -36 68 -45 24 -6 27 -5 27 19 0 16 6 26 15 26 23 0 47 44 39 74 -7 28 12
36 34 14 6 -6 15 -9 18 -5 10 10 -13 33 -46 47 -17 7 -30 19 -30 26 0 8 -10
14 -24 14 -15 0 -33 11 -45 28 -11 15 -29 36 -40 47 -17 18 -26 44 -22 68 2
11 31 8 31 -3z m1404 -190 c-16 -16 -49 13 -40 35 6 18 8 17 29 -3 14 -15 18
-25 11 -32z m-864 1 c0 -9 -52 -22 -60 -15 -7 7 23 24 43 24 9 0 17 -4 17 -9z
m-260 -111 c0 -5 -4 -10 -10 -10 -5 0 -10 5 -10 10 0 6 5 10 10 10 6 0 10 -4
10 -10z m500 -1625 c10 -12 9 -23 -6 -58 -16 -38 -21 -43 -46 -39 -21 3 -28
10 -28 26 0 39 11 64 33 74 30 14 33 14 47 -3z m-158 -222 c3 -23 9 -47 15
-55 12 -16 35 -80 29 -85 -2 -2 -15 20 -29 49 -23 50 -44 159 -27 141 5 -4 10
-27 12 -50z m183 -289 c2 -51 0 -81 -4 -69 -11 27 -19 177 -9 167 5 -5 10 -48
13 -98z"/>
<path d="M6151 4151 c-9 -6 -12 -19 -8 -40 5 -23 3 -31 -7 -31 -17 0 -16 -82
1 -87 29 -10 61 75 34 92 -5 3 -7 21 -4 40 6 38 5 39 -16 26z"/>
<path d="M7036 3852 c-3 -5 -19 -12 -36 -16 -32 -6 -33 -26 -1 -26 19 0 58 36
49 46 -3 3 -9 1 -12 -4z"/>
<path d="M6666 3840 c6 -6 28 -13 50 -17 52 -8 33 12 -21 22 -29 5 -37 4 -29
-5z"/>
<path d="M7540 5450 c-14 -4 -43 -8 -65 -9 -49 -1 -135 -31 -135 -47 0 -6 -7
-17 -15 -24 -8 -7 -13 -16 -10 -20 3 -4 -2 -11 -11 -14 -8 -3 -13 -10 -9 -15
3 -5 1 -12 -5 -16 -19 -12 -10 -23 33 -38 55 -20 127 -30 127 -18 0 5 -8 12
-19 16 -10 3 -26 14 -36 25 -16 18 -16 20 4 49 31 43 76 66 164 85 42 10 77
22 77 27 0 11 -65 10 -100 -1z"/>
<path d="M2745 5370 c-4 -6 -36 -25 -71 -41 -62 -29 -63 -30 -45 -48 21 -21
65 -17 133 13 50 21 51 21 22 -11 -14 -15 -21 -29 -15 -31 18 -6 12 -19 -11
-26 -27 -7 -15 -23 22 -28 15 -2 24 -9 22 -17 -2 -11 10 -13 63 -8 65 6 65 6
53 -16 -7 -13 -13 -17 -15 -10 -3 9 -27 11 -86 7 -61 -3 -76 -2 -59 6 30 13
19 30 -18 30 -16 0 -50 7 -76 16 -30 10 -61 13 -87 9 -33 -5 -39 -4 -27 5 12
10 12 11 -5 5 -11 -4 -25 -9 -31 -12 -6 -2 -14 5 -17 17 -4 17 -9 20 -24 12
-10 -5 -33 -10 -51 -10 -37 -1 -92 -11 -107 -20 -5 -3 -28 -5 -51 -3 -23 1
-45 -2 -49 -8 -9 -15 -37 -14 -71 4 -17 8 -75 19 -129 25 -55 6 -134 18 -175
27 -41 10 -79 16 -84 14 -6 -1 -51 -9 -100 -17 -50 -9 -125 -26 -166 -39 -41
-13 -94 -28 -117 -34 l-41 -11 15 -32 c15 -29 15 -32 -3 -45 -16 -12 -20 -12
-30 1 -8 12 -18 13 -55 4 -117 -27 -116 -27 -115 -51 1 -20 6 -22 62 -22 43 0
60 -3 57 -12 -6 -16 -20 -20 -89 -29 -110 -13 -214 -76 -214 -129 0 -13 7 -15
32 -10 l33 7 -30 -27 -30 -26 37 5 c22 3 38 1 38 -5 0 -6 9 -7 20 -4 11 3 20
3 20 -2 0 -22 -102 -63 -290 -118 -52 -15 -99 -32 -104 -36 -15 -13 1 -11 77
10 37 10 70 15 73 10 9 -15 47 -11 41 5 -4 9 8 16 36 24 47 11 121 37 152 52
11 6 47 19 80 30 33 11 77 32 98 46 21 13 50 29 64 35 27 10 27 10 8 -10 -15
-18 -16 -21 -2 -21 9 0 28 5 44 11 15 6 51 14 78 18 28 4 49 12 48 18 -1 6 7
13 18 16 16 4 19 2 15 -10 -4 -11 -2 -13 9 -10 8 4 17 2 20 -3 4 -6 21 -10 39
-10 63 0 92 -11 110 -41 11 -19 15 -37 10 -52 -8 -25 -9 -105 -1 -113 3 -3 14
-1 25 5 29 16 49 -10 21 -27 -14 -9 -18 -19 -13 -34 3 -12 7 -41 8 -65 1 -38
-1 -43 -21 -43 -31 0 -29 -18 8 -63 17 -20 26 -37 22 -37 -5 0 -19 -24 -31
-53 -12 -29 -44 -79 -70 -112 -26 -33 -61 -87 -77 -119 -26 -52 -30 -70 -28
-134 2 -101 12 -162 26 -162 7 0 24 -10 39 -23 24 -19 29 -31 34 -97 5 -50 13
-83 26 -99 24 -31 23 -50 -4 -60 -20 -7 -19 -10 21 -42 37 -29 42 -38 37 -62
-5 -23 0 -34 22 -56 16 -14 31 -32 33 -40 7 -19 29 -5 29 18 0 10 -7 24 -15
31 -8 7 -17 28 -20 49 -4 20 -12 52 -20 71 -7 19 -16 48 -20 64 -3 15 -13 35
-21 43 -10 11 -13 25 -8 47 8 40 8 40 33 26 17 -8 21 -20 21 -58 0 -36 6 -53
25 -74 14 -15 25 -31 25 -36 0 -5 7 -15 15 -22 9 -7 13 -20 10 -27 -3 -8 10
-33 29 -56 18 -23 43 -58 55 -77 22 -37 28 -99 10 -117 -15 -15 43 -78 100
-107 25 -12 75 -38 111 -56 66 -33 89 -37 148 -25 30 7 37 3 75 -37 41 -44
114 -78 166 -78 12 0 21 -5 21 -12 0 -7 12 -25 27 -40 15 -16 28 -41 29 -56 0
-20 10 -32 37 -46 22 -12 37 -27 37 -38 0 -10 6 -19 13 -20 6 0 17 -2 22 -3 6
-2 16 -3 23 -4 6 0 12 -8 12 -18 0 -9 3 -13 7 -10 3 4 12 2 18 -3 18 -15 44
-2 38 19 -2 9 5 25 16 35 17 15 23 16 36 6 8 -7 15 -22 15 -34 0 -11 7 -30 15
-40 10 -13 15 -43 15 -84 0 -67 -8 -83 -90 -168 -11 -12 -20 -27 -20 -33 0 -7
-5 -22 -12 -34 -19 -34 -18 -74 3 -93 18 -16 18 -18 -7 -41 -20 -19 -25 -30
-20 -51 4 -15 8 -33 9 -41 2 -8 10 -19 18 -25 23 -17 52 -63 99 -156 24 -47
52 -96 62 -109 10 -13 18 -32 18 -42 0 -29 45 -74 110 -108 83 -44 127 -85
140 -129 6 -20 13 -118 16 -217 3 -99 10 -211 16 -250 16 -109 21 -242 10
-275 -8 -23 -7 -37 6 -62 15 -30 24 -69 39 -171 5 -39 16 -52 33 -42 6 3 6 15
0 30 -5 14 -5 27 0 30 4 3 13 -18 19 -45 14 -66 14 -78 -1 -57 -12 16 -14 16
-25 -2 -10 -16 -9 -20 3 -25 9 -3 13 -13 10 -23 -2 -10 -7 -28 -11 -41 -5 -16
-3 -23 7 -21 28 3 38 -2 38 -20 0 -11 -5 -23 -10 -26 -10 -6 37 -106 53 -114
5 -2 12 -14 17 -27 6 -13 21 -29 34 -34 13 -5 27 -14 32 -21 5 -8 3 -9 -6 -4
-9 5 -11 4 -6 -3 4 -7 11 -12 16 -12 6 0 18 -7 27 -15 10 -8 21 -14 24 -13 4
2 15 -4 25 -14 11 -9 43 -24 72 -34 46 -14 61 -15 108 -5 50 11 74 31 39 31
-34 0 -94 41 -138 95 -52 63 -54 70 -31 79 10 4 14 14 11 26 -3 11 3 31 15 45
25 32 18 50 -27 69 -42 18 -46 43 -10 74 20 18 23 26 16 41 -8 14 -5 23 14 41
28 26 24 40 -9 40 -14 0 -27 9 -34 24 -11 24 -10 25 31 23 l42 -2 1 39 0 40
60 13 c36 8 66 21 77 34 21 26 22 75 2 83 -8 3 -15 12 -15 20 0 8 -12 24 -27
36 -28 21 -28 21 -3 13 14 -4 50 -8 80 -8 l55 0 27 54 c15 30 32 59 38 65 5 5
10 15 10 21 0 5 -5 3 -11 -5 -8 -11 -9 -9 -4 10 8 29 25 50 25 31 0 -21 17 -3
25 26 3 16 14 36 22 45 11 12 15 36 14 80 -1 57 2 66 30 96 16 17 37 32 45 32
9 0 22 6 30 14 8 8 36 18 62 22 52 8 66 21 96 94 25 63 36 120 44 230 8 103
14 117 90 220 50 68 58 102 42 168 -10 46 -15 51 -46 56 -18 4 -54 25 -79 46
-26 22 -56 42 -68 44 -38 8 -101 18 -126 20 -13 2 -31 12 -40 22 -22 28 -95
58 -125 52 -15 -3 -26 -1 -26 6 0 6 -13 18 -29 27 -22 13 -28 22 -24 41 3 14
-3 32 -16 47 -12 13 -21 35 -21 49 0 15 -14 37 -37 59 -46 42 -71 53 -126 53
-49 0 -102 29 -119 64 -6 14 -24 31 -40 39 -17 8 -35 25 -42 38 -6 13 -22 25
-34 27 -25 4 -28 12 -9 31 10 11 4 12 -33 6 -24 -4 -52 -12 -62 -19 -13 -8
-23 -8 -38 2 -11 6 -38 12 -60 12 -29 0 -40 4 -40 15 0 8 -11 17 -24 21 -14 3
-27 13 -29 22 -4 14 -6 13 -12 -4 -8 -26 -51 -49 -61 -33 -3 6 2 16 12 24 15
11 16 16 7 26 -10 10 -17 8 -36 -9 -13 -12 -43 -28 -68 -35 -34 -10 -48 -20
-61 -47 -10 -18 -26 -43 -37 -54 -19 -18 -22 -18 -38 -4 -41 36 -61 40 -100
20 -48 -23 -61 -20 -95 25 -32 42 -34 57 -13 136 22 85 20 96 -19 112 -25 11
-53 13 -97 8 -61 -6 -61 -6 -54 18 4 13 15 40 24 59 10 19 23 52 30 73 7 20
17 37 22 37 5 0 9 14 9 31 l0 30 -47 -7 c-66 -9 -81 -19 -99 -64 -17 -42 -23
-46 -101 -65 -48 -11 -53 -11 -82 12 -17 14 -31 32 -31 42 0 9 -4 21 -9 27
-20 22 -21 99 0 154 11 30 25 73 31 95 14 51 38 78 106 116 54 30 56 31 121
19 36 -6 73 -14 82 -16 11 -3 15 2 15 18 -1 21 4 23 63 26 50 2 67 0 73 -13 7
-12 13 -13 29 -4 16 8 25 7 40 -7 16 -15 19 -26 13 -57 -5 -30 -1 -51 17 -88
12 -27 28 -49 34 -49 26 0 38 58 31 151 -6 74 -4 94 10 117 20 32 79 77 154
118 30 16 59 35 63 42 4 6 15 12 23 12 11 0 14 9 12 38 -2 30 2 41 25 60 15
13 27 33 27 43 0 11 4 18 9 15 9 -6 61 41 61 55 0 5 8 9 18 9 9 0 30 7 46 15
15 8 35 15 43 15 8 0 24 5 35 11 16 9 18 13 7 19 -10 7 -10 14 -2 33 8 18 32
33 85 53 40 16 75 31 78 35 3 3 19 9 35 13 l30 7 -33 -28 c-23 -20 -30 -32
-23 -42 7 -12 15 -11 42 6 19 11 52 26 74 33 81 25 123 51 123 76 0 30 -9 30
-38 -1 -26 -28 -62 -37 -40 -10 11 13 8 15 -14 15 -14 0 -26 6 -26 13 0 7 -7
4 -15 -7 -13 -17 -15 -18 -15 -3 0 21 20 57 39 73 8 6 11 16 7 22 -11 18 -60
14 -118 -8 -70 -26 -72 -18 -4 14 30 14 58 31 61 36 4 6 55 10 118 10 101 1
116 3 152 25 22 14 49 25 60 25 15 0 3 -16 -49 -68 -38 -38 -69 -73 -68 -78 1
-5 37 -11 79 -14 51 -3 77 -9 76 -17 -4 -20 25 -22 42 -3 18 20 12 45 -8 33
-7 -3 -3 3 7 15 13 15 15 22 6 22 -10 0 -10 3 -1 14 16 19 -2 30 -35 22 -18
-5 -24 -3 -19 5 4 6 2 15 -5 19 -9 6 -7 11 9 19 25 14 29 44 5 34 -9 -3 -4 6
10 20 29 29 34 65 11 73 -8 4 -15 14 -15 23 0 10 -14 23 -35 31 -35 14 -39 21
-37 75 0 17 -6 51 -14 77 -9 26 -13 52 -9 58 12 19 -6 10 -41 -22 -19 -18 -49
-38 -67 -45 -27 -12 -33 -12 -50 5 -18 18 -18 22 -3 49 17 33 13 43 -16 43
-11 0 -17 4 -13 9 3 5 -8 19 -25 31 -16 12 -30 17 -30 12 0 -6 -23 -8 -58 -5
-55 5 -58 4 -70 -21 -6 -15 -19 -29 -28 -33 -12 -4 -13 -7 -3 -14 10 -6 3 -18
-28 -46 -36 -33 -40 -40 -26 -49 12 -7 14 -18 9 -37 -9 -38 -42 -65 -103 -84
-37 -11 -53 -22 -52 -32 4 -35 -15 -83 -39 -101 -33 -26 -46 -25 -60 5 -16 35
-15 37 8 30 24 -7 26 3 5 19 -13 10 -13 14 0 40 19 36 12 46 -29 46 -19 0 -47
10 -67 25 -50 37 -98 57 -119 50 -17 -5 -18 -2 -13 29 4 28 2 35 -13 38 -16 4
-12 11 25 47 45 44 213 132 278 146 18 3 47 16 65 29 59 39 64 38 19 -3 -26
-25 -37 -41 -28 -41 8 0 17 -5 19 -11 3 -8 19 -4 48 10 27 13 46 17 48 11 4
-11 55 -14 65 -4 6 7 -41 54 -54 54 -5 0 -9 6 -9 14 0 9 7 12 20 9 14 -4 20 0
20 11 0 10 4 15 9 12 14 -9 81 23 88 42 3 9 18 27 32 39 16 14 21 22 12 23
-33 0 4 15 42 16 23 1 51 3 62 5 16 3 19 -1 17 -18 -2 -17 2 -23 15 -24 11 0
6 -5 -12 -11 -41 -15 -58 -29 -46 -41 5 -5 22 -2 45 8 20 10 43 14 52 11 11
-4 15 -2 11 8 -4 10 -1 13 7 10 25 -9 5 -42 -35 -58 -21 -9 -39 -23 -39 -31 0
-12 -13 -15 -58 -15 -64 0 -109 -21 -82 -39 8 -5 28 -7 45 -4 16 3 32 6 35 5
31 0 41 -7 56 -37 9 -20 24 -35 34 -35 9 0 43 -9 75 -20 68 -23 65 -23 65 -10
0 6 -6 10 -12 11 -12 0 -66 59 -55 59 10 0 67 -32 72 -41 10 -16 25 -10 25 10
0 10 6 21 14 24 17 7 10 47 -11 62 -16 12 -7 45 12 45 8 0 16 -9 20 -19 8 -27
35 -34 55 -16 9 8 19 12 23 9 3 -3 20 5 37 17 29 22 30 24 13 37 -10 8 -37 22
-59 32 -56 24 -68 49 -21 41 9 -1 9 31 -1 44 -11 15 -71 45 -91 45 -19 0 -61
40 -61 58 0 13 -3 14 -150 18 -117 3 -176 -11 -225 -51 -25 -21 -28 -26 -15
-35 13 -8 12 -10 -4 -10 -15 0 -16 -3 -6 -15 7 -8 23 -15 36 -15 46 0 22 -36
-49 -75 -52 -28 -71 -27 -44 3 23 25 21 40 -5 44 -19 2 -24 10 -26 46 -3 46
14 71 50 72 26 0 98 31 98 41 0 15 -99 10 -130 -6 -16 -8 -34 -24 -40 -35 -6
-11 -28 -29 -49 -40 -22 -11 -48 -31 -60 -46 -14 -17 -26 -24 -37 -20 -18 7
-84 -13 -84 -26 0 -4 6 -8 13 -8 6 0 -1 -7 -17 -15 -37 -19 -130 -20 -149 0
-8 8 -16 12 -18 11 -2 -2 -11 3 -19 12 -13 14 -12 15 5 8 11 -4 39 -11 62 -15
35 -7 46 -5 63 11 11 10 20 16 20 12 0 -3 7 -1 15 6 22 18 19 29 -10 36 -23 6
-36 24 -16 24 5 0 11 9 14 20 3 11 19 28 36 37 17 10 31 21 31 26 0 11 -48 9
-55 -3 -3 -5 -17 -10 -30 -10 -14 0 -32 -11 -44 -26 -18 -23 -21 -24 -21 -7 0
16 -7 19 -51 20 -38 1 -56 6 -75 24 -22 21 -38 24 -114 27 -60 3 -90 0 -95 -8z
m942 -57 c-15 -16 -17 -16 -17 -1 0 9 6 18 13 21 20 7 22 -2 4 -20z m168 7 c3
-5 -1 -10 -9 -10 -9 0 -16 5 -16 10 0 6 4 10 9 10 6 0 13 -4 16 -10z m-972
-77 c-7 -2 -21 -2 -30 0 -10 3 -4 5 12 5 17 0 24 -2 18 -5z m455 -53 c-7 -11
-28 -25 -45 -31 -18 -6 -33 -15 -33 -20 0 -5 -5 -9 -12 -9 -16 0 20 38 43 45
11 4 17 10 14 15 -5 9 10 18 33 19 10 1 10 -3 0 -19z m602 -91 c0 -5 -7 -9
-15 -9 -15 0 -20 12 -9 23 8 8 24 -1 24 -14z m-1410 1 c-12 -7 -8 -10 15 -10
59 -1 6 -19 -105 -35 -32 -5 -33 -4 -12 7 13 6 21 17 18 24 -5 13 18 19 74 22
20 1 22 0 10 -8z m970 -10 c0 -5 -4 -10 -10 -10 -5 0 -10 5 -10 10 0 6 5 10
10 10 6 0 10 -4 10 -10z m-930 -162 c20 -3 16 -6 -27 -21 -28 -9 -67 -17 -85
-17 l-33 1 40 14 c22 8 44 21 50 29 5 9 13 11 20 6 5 -4 21 -10 35 -12z m190
-342 c0 -36 -10 -55 -26 -49 -17 6 -18 45 -2 61 18 18 28 14 28 -12z m-940
-174 c0 -17 -17 -7 -31 19 -9 18 -9 19 10 7 12 -7 21 -19 21 -26z m1204 -38
c28 -42 18 -57 -39 -58 -42 -1 -50 2 -49 17 2 21 1 21 -38 1 -19 -10 -40 -13
-57 -9 l-26 7 28 15 c24 12 51 19 90 22 5 1 6 5 2 10 -3 5 3 12 12 14 42 11
61 6 77 -19z m-39 -109 c-54 -45 -75 -69 -75 -86 0 -19 -37 -69 -51 -69 -40 0
44 142 98 166 47 21 60 15 28 -11z m762 19 c-3 -3 -12 -4 -19 -1 -8 3 -5 6 6
6 11 1 17 -2 13 -5z m-597 -31 c0 -24 -14 -31 -25 -12 -4 6 -20 -7 -37 -30
-31 -43 -51 -53 -46 -23 2 9 -2 16 -10 14 -9 -1 -8 5 4 23 13 19 14 28 5 39
-10 12 -2 14 49 13 55 -2 60 -3 60 -24z m105 -63 c-3 -5 -30 -10 -58 -9 -38 0
-47 3 -32 9 29 12 98 12 90 0z m-155 -62 c-56 -25 -110 -35 -110 -20 0 7 7 9
17 5 10 -4 14 -2 10 4 -3 5 -1 10 6 11 7 1 30 6 52 11 65 14 73 11 25 -11z
m77 -190 c-3 -8 -6 -5 -6 6 -1 11 2 17 5 13 3 -3 4 -12 1 -19z m-541 -1125
c-4 -4 -11 -1 -16 7 -16 25 -11 35 7 17 9 -9 13 -20 9 -24z m514 -64 c0 -21
-16 -26 -23 -6 -6 17 3 38 14 31 5 -3 9 -14 9 -25z m95 -1080 c11 -17 -1 -21
-15 -4 -8 9 -8 15 -2 15 6 0 14 -5 17 -11z m399 -1598 c-5 -6 -34 20 -34 30 0
5 8 1 18 -8 10 -10 17 -20 16 -22z"/>
<path d="M9510 5371 c0 -6 7 -11 16 -11 8 0 12 -4 9 -10 -4 -6 14 -10 46 -10
58 0 59 9 2 20 -21 4 -46 11 -55 15 -11 4 -18 3 -18 -4z"/>
<path d="M3358 5363 c-23 -3 -42 -11 -48 -22 -6 -13 -17 -17 -35 -14 -31 7
-32 -5 -1 -35 19 -17 31 -21 53 -16 50 12 85 34 79 50 -3 8 -2 13 3 10 5 -3
12 1 15 10 10 27 16 25 -66 17z"/>
<path d="M3768 5202 c-16 -9 -28 -23 -28 -30 0 -8 12 -2 30 15 42 39 41 42 -2
15z"/>
<path d="M5229 5080 l-24 -19 30 -1 30 -1 -30 -15 c-16 -8 -23 -12 -14 -10 23
6 48 -11 32 -22 -8 -5 8 -12 43 -20 48 -10 63 -9 118 9 35 10 75 28 88 38 21
18 21 20 6 26 -10 4 -18 14 -18 22 0 12 -10 13 -52 8 -29 -3 -64 -7 -78 -9
-14 -1 -32 -6 -39 -10 -7 -5 -20 -1 -30 8 -23 21 -34 20 -62 -4z"/>
<path d="M5680 4924 c0 -8 5 -12 10 -9 6 3 10 10 10 16 0 5 -4 9 -10 9 -5 0
-10 -7 -10 -16z"/>
<path d="M5781 4816 c-7 -9 -23 -16 -35 -16 -12 0 -27 -9 -34 -20 -7 -11 -19
-20 -28 -20 -11 0 -14 -4 -8 -12 11 -16 11 -39 1 -55 -5 -8 1 -15 17 -19 17
-4 23 -11 19 -21 -5 -12 -1 -14 15 -9 15 5 24 1 32 -14 13 -24 6 -40 -20 -40
-20 0 -37 -30 -17 -30 7 -1 5 -6 -5 -14 -23 -17 -23 -22 5 -30 21 -5 21 -6
-10 -28 -43 -30 -41 -38 5 -26 20 5 67 13 103 17 70 8 93 17 84 31 -3 5 0 19
7 31 11 18 11 22 0 26 -15 6 -20 11 -62 68 -16 22 -36 47 -44 55 -12 13 -12
18 0 34 20 28 18 34 -16 41 l-30 7 21 17 c12 10 20 23 18 30 -4 10 -8 9 -18
-3z"/>
<path d="M1200 4781 c-25 -11 -53 -22 -62 -25 -22 -7 -24 -26 -3 -26 25 0 85
28 85 39 0 6 6 11 14 11 8 0 18 5 21 10 9 14 -3 12 -55 -9z"/>
<path d="M5608 4650 c-7 -11 -22 -20 -34 -20 -13 0 -24 -8 -27 -20 -3 -11 -1
-20 4 -20 14 0 10 -22 -8 -42 -13 -14 -14 -21 -4 -31 9 -9 24 -7 69 9 49 18
57 24 63 52 4 18 12 39 20 48 11 14 10 18 -6 30 -27 20 -63 17 -77 -6z"/>
<path d="M10595 4260 c-4 -6 -1 -10 5 -10 6 0 18 -16 26 -35 17 -42 17 -46 1
-39 -20 7 -15 -41 7 -65 22 -24 40 -18 31 10 -7 22 9 25 49 9 21 -7 26 -6 26
5 0 8 10 17 23 20 19 5 23 13 23 41 0 32 -1 34 -13 18 -8 -12 -13 -13 -13 -5
0 10 -3 11 -13 3 -10 -8 -30 -3 -80 23 -37 19 -69 30 -72 25z"/>
<path d="M10663 4083 c-4 -9 1 -29 10 -45 19 -34 22 -80 7 -109 -11 -20 -40
-27 -40 -9 0 6 -5 10 -11 10 -6 0 -8 -7 -5 -16 3 -8 3 -26 0 -40 -5 -21 -12
-24 -51 -24 -37 0 -50 -5 -74 -31 -16 -17 -29 -34 -29 -36 0 -3 -8 -12 -17
-19 -17 -12 -17 -14 3 -36 12 -13 27 -33 33 -45 6 -13 18 -23 26 -23 18 0 29
41 20 69 -6 21 9 29 20 11 10 -16 25 -12 25 6 0 10 6 14 15 10 9 -3 15 0 15 9
0 18 5 19 30 3 16 -11 22 -9 34 7 8 11 12 23 10 27 -5 8 35 13 65 9 7 -2 10 2
6 9 -5 9 -1 10 13 6 14 -5 21 -1 25 14 3 11 2 22 -3 25 -9 6 -20 55 -23 110
-1 29 -12 52 -37 83 -37 45 -57 52 -67 25z m-53 -277 c0 -3 -4 -8 -10 -11 -5
-3 -10 -1 -10 4 0 6 5 11 10 11 6 0 10 -2 10 -4z m-77 -37 c-8 -8 -16 -8 -30
0 -16 9 -14 10 12 11 21 0 26 -3 18 -11z"/>
<path d="M10205 3391 c-19 -39 -19 -61 2 -91 l17 -24 7 24 c11 38 10 108 -1
115 -5 3 -16 -8 -25 -24z"/>
<path d="M3000 3394 c0 -8 5 -12 10 -9 6 3 10 10 10 16 0 5 -4 9 -10 9 -5 0
-10 -7 -10 -16z"/>
<path d="M2744 3306 c-32 -14 -50 -33 -41 -42 3 -3 24 4 46 16 44 22 61 20 61
-8 0 -12 2 -14 8 -4 11 16 100 -15 113 -40 5 -10 17 -18 27 -19 10 0 12 -3 4
-6 -6 -2 -10 -9 -6 -14 10 -16 124 -8 124 10 0 3 -22 18 -49 33 -26 15 -54 34
-61 43 -7 8 -22 15 -34 15 -11 0 -30 7 -40 15 -25 19 -110 19 -152 1z"/>
<path d="M120 3230 c0 -5 5 -10 11 -10 5 0 7 5 4 10 -3 6 -8 10 -11 10 -2 0
-4 -4 -4 -10z"/>
<path d="M137 3194 c-14 -14 -7 -35 11 -32 9 2 17 10 17 17 0 16 -18 25 -28
15z"/>
<path d="M3115 3179 c-3 -4 -1 -10 5 -14 24 -15 9 -35 -25 -35 -19 0 -35 -4
-35 -9 0 -13 23 -20 53 -14 15 3 34 0 42 -7 12 -10 18 -10 31 1 9 7 34 13 57
14 52 1 57 17 14 42 -34 21 -134 36 -142 22z"/>
<path d="M2973 3116 c10 -8 27 -12 37 -9 29 8 13 23 -23 23 -29 -1 -30 -2 -14
-14z"/>
<path d="M3370 3120 c0 -5 11 -10 25 -10 14 0 25 5 25 10 0 6 -11 10 -25 10
-14 0 -25 -4 -25 -10z"/>
<path d="M10270 3081 c0 -28 -5 -51 -10 -51 -12 0 16 -73 30 -78 6 -2 10 -10
10 -18 0 -9 -4 -12 -10 -9 -16 10 -12 -4 12 -35 28 -38 42 -38 35 0 -4 17 -2
30 3 30 6 0 10 -5 10 -11 0 -6 9 -9 20 -6 13 3 20 0 20 -10 0 -8 4 -12 9 -8 5
3 13 0 17 -6 4 -8 3 -9 -4 -5 -7 4 -12 1 -12 -7 0 -12 19 -27 33 -27 10 0 -2
63 -13 71 -13 9 -12 10 3 5 11 -3 17 0 17 9 0 8 -6 12 -12 10 -7 -3 -31 2 -53
10 -22 8 -33 14 -25 15 12 0 12 3 -2 14 -20 15 -24 42 -7 48 16 5 2 98 -14 98
-7 0 -22 3 -34 6 -22 6 -23 3 -23 -45z"/>
<path d="M7800 2880 c0 -5 4 -10 9 -10 6 0 13 5 16 10 3 6 -1 10 -9 10 -9 0
-16 -4 -16 -10z"/>
<path d="M10455 2850 c10 -11 13 -20 7 -20 -19 0 -14 -21 13 -56 29 -38 30
-44 11 -44 -8 0 -18 -9 -21 -21 -5 -16 -9 -18 -21 -8 -11 9 -19 8 -37 -7 -37
-32 -51 -64 -27 -64 6 0 10 6 10 13 0 6 13 12 30 13 25 1 30 -3 30 -22 0 -14
12 -31 29 -44 32 -22 47 -14 36 20 -7 21 10 29 18 8 2 -7 7 1 11 17 8 39 -27
141 -48 137 -15 -3 -16 14 -3 35 13 20 -11 63 -34 63 -21 0 -22 -1 -4 -20z"/>
<path d="M10360 2811 c0 -25 4 -31 21 -31 18 0 20 -2 9 -16 -11 -12 -10 -18 4
-32 15 -15 18 -15 26 -2 5 8 14 16 20 16 5 1 15 2 22 3 7 1 5 8 -5 19 -10 10
-17 26 -17 36 0 10 -5 14 -11 10 -6 -3 -14 -2 -18 3 -3 6 -16 13 -28 17 -20 7
-23 4 -23 -23z"/>
<path d="M10256 2795 c-3 -13 -20 -41 -37 -60 -18 -20 -29 -38 -25 -42 3 -3
16 7 28 23 13 16 32 38 43 49 12 11 19 28 17 38 -5 25 -19 21 -26 -8z"/>
<path d="M3550 2795 c0 -8 5 -15 10 -15 6 0 10 7 10 15 0 8 -4 15 -10 15 -5 0
-10 -7 -10 -15z"/>
<path d="M8797 2741 c-8 -32 0 -132 12 -144 12 -12 49 0 60 21 12 24 -4 72
-37 111 -28 34 -29 34 -35 12z"/>
<path d="M10171 2622 c-14 -34 -57 -82 -74 -82 -7 0 -20 -13 -29 -30 -9 -16
-33 -36 -52 -44 -26 -11 -36 -21 -36 -37 0 -19 -4 -21 -34 -15 -29 6 -37 3
-46 -13 -13 -25 2 -101 24 -117 9 -6 16 -25 16 -43 0 -28 3 -31 30 -31 17 0
30 -5 30 -11 0 -7 11 -9 29 -6 37 8 71 -2 71 -20 0 -11 5 -13 18 -8 9 5 25 8
34 9 13 0 19 12 24 46 3 25 14 54 24 65 10 11 20 34 22 50 2 22 9 31 26 33 26
4 28 14 7 32 -8 7 -15 20 -15 29 0 9 -5 22 -10 27 -13 13 4 64 21 64 9 0 9 3
0 14 -9 11 -7 15 11 20 23 6 22 6 -7 24 -16 10 -36 31 -44 45 -18 34 -26 34
-40 -1z"/>
<path d="M9380 2565 c0 -9 28 -47 61 -83 34 -37 66 -78 72 -92 6 -14 21 -39
33 -55 13 -17 31 -50 42 -75 28 -63 127 -170 158 -170 24 0 34 -25 13 -32 -15
-5 76 -49 103 -50 22 0 123 -20 195 -38 21 -5 35 -4 39 2 4 7 9 6 14 -1 5 -9
10 -8 20 4 8 10 9 15 1 16 -14 2 -21 4 -43 12 -10 4 -26 10 -35 13 -15 5 -14
8 7 17 23 10 21 11 -25 16 -27 4 -55 10 -62 14 -6 4 -14 3 -18 -3 -10 -17 -62
-11 -98 10 -19 12 -39 20 -43 19 -28 -5 -34 4 -34 45 0 54 8 76 27 76 12 0 11
5 -4 30 -18 31 -50 43 -39 14 9 -25 -17 -11 -31 16 -6 13 -18 27 -26 31 -8 5
-13 18 -10 32 4 18 -5 32 -32 56 -21 18 -49 38 -63 44 -15 7 -51 37 -82 68
-31 31 -67 58 -80 61 -14 3 -33 9 -42 13 -13 5 -18 2 -18 -10z"/>
<path d="M8540 2467 c0 -14 5 -29 10 -32 7 -4 8 3 4 22 -9 38 -14 42 -14 10z"/>
<path d="M10595 2407 c-4 -15 -5 -39 -3 -52 3 -14 1 -25 -3 -25 -5 0 -9 -7 -9
-15 0 -9 9 -15 21 -15 18 0 20 4 15 25 -4 17 -2 25 6 25 7 0 14 13 15 30 2 21
-2 28 -12 24 -7 -3 -15 2 -18 13 -3 14 -5 12 -12 -10z"/>
<path d="M10480 2395 c-13 -16 -71 -19 -105 -6 -34 13 -62 -15 -80 -77 -8 -32
-20 -65 -25 -74 -15 -26 -12 -45 6 -52 13 -5 15 -15 10 -46 -6 -36 -4 -40 14
-40 16 0 20 7 20 38 0 47 10 82 22 82 6 0 8 -7 5 -14 -3 -8 1 -29 9 -46 13
-25 19 -29 30 -19 12 9 14 8 12 -11 -4 -35 19 -35 27 0 5 22 3 35 -8 43 -7 7
-20 27 -27 45 -11 28 -10 35 5 52 10 11 24 20 32 20 7 0 13 5 13 10 0 15 -41
12 -72 -4 -23 -12 -29 -12 -38 -1 -6 8 -10 24 -8 37 3 22 6 23 79 20 72 -4 76
-3 92 22 9 14 17 28 17 31 0 10 -18 5 -30 -10z"/>
<path d="M2427 2330 c3 -11 9 -17 14 -15 10 7 1 35 -11 35 -5 0 -6 -9 -3 -20z"/>
<path d="M10746 2311 c-4 -6 -14 -10 -21 -9 -8 2 -15 -1 -16 -7 -2 -9 32 -34
76 -54 19 -9 19 -10 -2 -10 -27 -1 -29 -13 -8 -31 8 -7 15 -19 15 -26 0 -8 7
-14 15 -14 8 0 15 5 15 11 0 6 11 4 28 -5 15 -8 50 -25 79 -37 43 -17 54 -27
64 -56 10 -30 9 -37 -10 -57 -30 -32 -26 -39 20 -32 36 6 44 3 65 -19 15 -16
34 -25 54 -25 17 0 30 -5 30 -12 0 -7 11 7 24 32 13 24 28 46 33 47 23 8 63
-18 89 -58 26 -38 35 -44 89 -55 33 -6 62 -10 64 -9 6 7 -10 25 -23 25 -7 0
-19 11 -26 25 -7 14 -18 25 -24 25 -12 1 -56 65 -56 81 0 5 7 9 15 9 26 0 16
20 -20 41 -19 12 -35 25 -35 30 0 16 -33 45 -70 62 -70 32 -218 87 -232 87 -8
0 -34 -17 -58 -37 -29 -25 -45 -33 -48 -25 -2 7 -10 18 -16 25 -7 6 -11 20 -9
31 2 12 0 27 -5 34 -12 18 -87 28 -96 13z"/>
<path d="M10608 2212 c-32 -13 -3 -27 55 -28 31 0 57 1 57 2 0 2 -7 10 -16 18
-16 16 -65 20 -96 8z"/>
<path d="M11490 2176 c0 -9 5 -16 10 -16 6 0 10 4 10 9 0 6 -4 13 -10 16 -5 3
-10 -1 -10 -9z"/>
<path d="M11450 2166 c0 -17 -28 -41 -49 -42 -9 -1 -29 -2 -46 -3 l-30 -2 33
-17 c31 -15 35 -15 70 3 20 11 38 19 39 20 1 0 4 12 8 28 6 21 4 27 -9 27 -9
0 -16 -6 -16 -14z"/>
<path d="M11571 2096 c7 -14 19 -26 27 -26 13 0 13 3 0 22 -22 33 -41 36 -27
4z"/>
<path d="M11635 2060 c3 -5 8 -10 11 -10 2 0 4 5 4 10 0 6 -5 10 -11 10 -5 0
-7 -4 -4 -10z"/>
<path d="M11700 2032 c0 -4 9 -13 20 -20 11 -7 20 -9 20 -4 0 4 -9 13 -20 20
-11 7 -20 9 -20 4z"/>
<path d="M10205 1989 c-4 -6 -17 -8 -30 -5 -15 4 -25 1 -28 -8 -7 -17 45 -32
64 -20 7 4 44 6 83 6 39 -1 100 5 136 12 l65 14 -115 -1 c-63 -1 -127 1 -142
6 -16 4 -29 3 -33 -4z"/>
<path d="M11777 1980 c3 -11 10 -23 16 -27 7 -4 8 0 4 11 -4 10 -7 22 -7 27 0
5 -4 9 -9 9 -5 0 -7 -9 -4 -20z"/>
<path d="M10523 1980 c-41 -9 -103 -56 -103 -76 0 -13 6 -12 33 5 17 11 51 31
75 43 23 12 42 26 42 30 0 9 -2 9 -47 -2z"/>
<path d="M11735 1950 c3 -5 13 -10 21 -10 8 0 14 5 14 10 0 6 -9 10 -21 10
-11 0 -17 -4 -14 -10z"/>
<path d="M11805 1910 c3 -5 8 -10 11 -10 2 0 4 5 4 10 0 6 -5 10 -11 10 -5 0
-7 -4 -4 -10z"/>
<path d="M11106 1849 c-9 -17 -23 -66 -31 -107 -18 -83 -41 -141 -61 -149 -13
-5 -66 28 -95 60 -9 9 -21 17 -26 17 -6 0 -18 9 -27 19 -17 18 -17 22 -2 43 9
12 16 17 16 10 0 -6 7 -12 15 -12 20 0 19 17 -1 28 -14 8 -14 10 0 21 22 19
21 58 -2 56 -9 0 -23 -5 -30 -9 -8 -5 -35 3 -68 19 -30 15 -58 24 -62 20 -4
-4 -1 -10 6 -12 27 -10 12 -33 -22 -33 -30 0 -39 -6 -65 -46 -17 -25 -31 -49
-31 -55 0 -16 -36 -10 -55 11 -28 31 -63 25 -101 -16 -19 -19 -34 -42 -34 -50
0 -8 -9 -14 -20 -14 -14 0 -20 -7 -21 -22 -1 -17 -2 -19 -6 -5 -2 9 -8 17 -13
17 -13 0 -40 -41 -40 -60 0 -29 -63 -76 -133 -98 -37 -12 -74 -22 -81 -22 -20
0 -96 -51 -96 -64 0 -6 -4 -4 -10 4 -7 11 -11 9 -19 -13 -6 -16 -11 -34 -11
-42 0 -8 -5 -17 -11 -21 -11 -6 -8 -39 7 -79 7 -18 6 -18 -9 -6 -14 11 -18 11
-23 -2 -3 -9 -3 -21 1 -26 32 -52 22 -263 -14 -292 -26 -21 -26 -31 -3 -52 25
-23 70 -21 123 5 30 16 64 23 107 24 40 1 68 6 80 16 30 27 83 50 126 55 22 2
43 6 47 9 4 2 29 9 56 14 69 13 129 -10 149 -58 8 -19 12 -43 9 -53 -11 -33
12 -28 55 11 58 53 71 51 26 -5 -24 -29 -32 -45 -23 -45 8 0 22 10 30 23 13
18 16 19 16 5 1 -9 -3 -20 -9 -23 -15 -9 -12 -25 4 -25 19 0 26 -21 14 -43
-14 -27 0 -56 30 -63 15 -4 33 -11 39 -16 8 -7 23 -6 42 0 22 8 34 7 49 -4 18
-13 26 -11 68 11 26 14 55 25 65 25 32 0 49 12 80 56 16 24 69 84 117 132 92
94 162 207 162 263 0 16 6 45 14 64 10 23 11 32 3 29 -14 -5 -57 66 -57 95 0
11 -9 22 -20 26 -19 6 -25 26 -22 68 1 9 -2 17 -6 17 -5 0 -17 8 -28 18 -10
10 -26 21 -35 24 -12 5 -18 27 -23 90 -10 115 -14 130 -37 123 -16 -5 -19 -1
-18 27 1 37 -4 64 -14 74 -4 4 -7 16 -7 26 0 28 -17 21 -34 -13z"/>
<path d="M7634 1801 c-4 -17 -13 -31 -20 -31 -8 0 -20 -16 -28 -35 -11 -26
-28 -41 -70 -62 -66 -32 -81 -60 -71 -133 6 -43 3 -56 -20 -95 -26 -45 -27
-57 -9 -142 2 -13 15 -30 29 -39 21 -13 29 -14 60 -3 29 11 38 22 54 65 45
119 101 297 101 320 0 14 5 23 13 22 23 -5 2 142 -24 158 -5 3 -12 -8 -15 -25z"/>
<path d="M11960 1714 c0 -8 5 -12 10 -9 6 4 8 11 5 16 -9 14 -15 11 -15 -7z"/>
<path d="M12394 1655 c-10 -8 -14 -15 -8 -15 5 0 19 7 30 15 10 8 14 15 8 15
-5 0 -19 -7 -30 -15z"/>
<path d="M12330 1605 c0 -8 9 -15 20 -15 11 0 20 7 20 15 0 8 -9 15 -20 15
-11 0 -20 -7 -20 -15z"/>
<path d="M11820 1491 c0 -13 59 -71 71 -71 6 0 -5 18 -22 40 -31 39 -49 50
-49 31z"/>
<path d="M7845 1470 c-3 -5 -1 -10 4 -10 6 0 11 5 11 10 0 6 -2 10 -4 10 -3 0
-8 -4 -11 -10z"/>
<path d="M11911 851 c1 -49 -3 -68 -22 -95 -13 -19 -34 -40 -48 -46 -23 -10
-23 -11 -5 -25 18 -14 18 -16 -8 -39 -31 -28 -34 -36 -15 -36 16 0 97 58 115
82 7 10 20 18 28 18 16 0 74 48 74 61 0 5 -11 4 -24 -3 -34 -15 -59 -4 -51 22
5 15 3 18 -9 14 -19 -7 -19 -8 -7 32 7 23 4 35 -10 53 l-19 23 1 -61z"/>
<path d="M11730 639 c-60 -56 -130 -99 -201 -124 -46 -17 -149 -81 -149 -94 0
-5 18 -12 41 -16 34 -6 47 -3 82 20 23 15 53 38 67 50 26 24 66 41 88 37 6 -2
12 3 12 10 1 7 24 29 52 48 50 34 78 70 45 57 -10 -4 -17 0 -19 10 -3 14 -5
15 -18 2z"/>
<path d="M10815 587 c-20 -48 -20 -97 0 -97 28 0 73 29 99 63 37 48 34 58 -14
51 -26 -4 -45 -2 -55 6 -13 10 -17 7 -30 -23z"/>
<path d="M8107 303 c-4 -3 -7 -12 -7 -18 0 -15 47 -8 57 8 4 7 0 8 -12 3 -10
-4 -21 -2 -25 4 -3 6 -9 7 -13 3z"/>
<path d="M3907 155 c-8 -19 10 -30 27 -15 11 8 15 8 18 -1 5 -14 48 5 48 21 0
17 -87 12 -93 -5z"/>
<path d="M4730 80 c20 -13 33 -13 25 0 -3 6 -14 10 -23 10 -15 0 -15 -2 -2
-10z"/>
</g>
</svg>
